<svg version="1.1" id="Layer_1" xmlns="http://www.w3.org/2000/svg" xmlns:xlink="http://www.w3.org/1999/xlink" x="0px" y="0px"
	 width="100%" viewBox="0 0 1280 1308" enable-background="new 0 0 1280 1308" xml:space="preserve">
<path fill="transparent" opacity="1.000000" stroke="none" 
	d="
M707.000000,1.000000 
	C898.265320,1.000000 1089.530640,1.000000 1281.000000,1.000000 
	C1281.000000,205.692459 1281.000000,410.384979 1280.611328,615.799255 
	C1279.816162,615.503662 1279.148926,614.512085 1279.045410,613.464722 
	C1278.301514,605.947632 1277.849976,598.398315 1276.970215,590.898560 
	C1275.084595,574.824524 1273.042480,558.768188 1270.974121,542.716248 
	C1269.720825,532.990234 1269.644897,533.000000 1259.669189,533.000000 
	C1060.007935,533.000000 860.346619,533.000000 660.685303,533.000000 
	C658.575806,533.000000 656.466370,533.000000 654.316040,533.000000 
	C654.316040,617.271606 654.316040,700.995178 654.316040,785.168823 
	C772.015259,785.168823 889.399109,785.168823 1006.534119,785.168823 
	C1006.313843,788.042542 1006.127930,790.468079 1005.597595,793.103760 
	C1001.890991,806.206299 998.528809,819.098816 995.084595,832.364929 
	C989.647034,845.277832 984.404907,857.867188 978.883057,870.332703 
	C976.517029,875.674133 973.569092,880.757751 970.569580,886.100464 
	C968.011719,889.825317 965.834290,893.450623 963.514587,896.982422 
	C958.700134,904.312378 953.809998,911.592712 948.640259,919.034424 
	C941.869934,926.747925 935.410217,934.320496 928.643921,942.032227 
	C923.208496,947.411438 918.079834,952.651611 912.604004,957.944458 
	C907.508179,962.046021 902.759460,966.094849 897.673767,970.170837 
	C893.875427,973.096191 890.414062,975.994324 886.602295,978.945801 
	C883.611084,980.803894 880.970154,982.608765 878.055176,984.611084 
	C874.829102,986.820068 871.877136,988.831543 868.617798,991.012451 
	C863.190918,994.418762 858.071350,997.655579 852.588196,1000.946045 
	C847.467407,1003.630249 842.710083,1006.260864 837.574951,1008.935913 
	C831.423950,1011.638489 825.650818,1014.296570 819.510376,1016.988647 
	C811.745422,1019.972961 804.347717,1022.923279 796.559387,1025.924316 
	C785.433777,1029.276245 774.698730,1032.577271 763.552734,1035.925781 
	C761.390198,1036.316406 759.634277,1036.638794 757.887817,1037.006226 
	C748.571716,1038.966553 739.257996,1040.938110 729.510376,1042.941406 
	C727.750793,1043.012695 726.411682,1042.942871 725.099731,1043.099731 
	C711.626587,1044.710938 698.185303,1046.659058 684.678650,1047.895996 
	C674.829407,1048.797974 664.895508,1048.776245 654.537842,1049.100952 
	C645.022339,1048.689209 635.951294,1048.578735 626.919983,1047.921509 
	C619.760376,1047.400391 612.637268,1046.296021 605.520142,1045.293579 
	C596.335815,1043.999756 587.173584,1042.549438 577.613525,1041.082275 
	C567.831299,1038.628296 558.437439,1036.258545 548.831543,1033.582520 
	C537.745667,1029.573486 526.871826,1025.870728 515.668945,1021.994751 
	C510.098907,1019.714661 504.858002,1017.607849 499.337341,1015.292480 
	C494.146851,1012.755127 489.236145,1010.426392 484.150208,1007.833618 
	C481.025879,1006.032654 478.076843,1004.495728 474.942413,1002.655518 
	C469.522003,999.532532 464.286987,996.712708 458.875214,993.603760 
	C456.504822,992.193420 454.311218,991.072205 451.959869,989.643433 
	C448.904877,987.537781 446.007629,985.739807 442.961853,983.643799 
	C441.234100,982.186096 439.654877,981.026489 437.903076,979.571411 
	C434.422882,977.045105 431.115295,974.814270 427.609619,972.288391 
	C424.625793,969.957397 421.840088,967.921448 418.911560,965.591431 
	C417.198364,964.163757 415.627930,963.030151 413.897705,961.612305 
	C412.194763,960.203308 410.651550,959.078552 408.959290,957.647705 
	C405.912659,954.882324 403.015137,952.422974 399.963318,949.650879 
	C396.575287,946.542969 393.341553,943.747681 389.962891,940.648804 
	C386.561371,937.193665 383.304749,934.042175 379.909058,930.590332 
	C377.546051,927.846130 375.322205,925.402344 372.961395,922.653748 
	C370.586182,920.217163 368.347931,918.085327 366.057007,915.606567 
	C364.052521,912.810120 362.100616,910.360718 359.995087,907.611023 
	C357.245026,904.505493 354.648590,901.700195 352.020264,898.543701 
	C349.674377,895.092529 347.360382,891.992615 344.907654,888.586670 
	C343.207306,886.157715 341.645752,884.034790 339.934021,881.602783 
	C336.831543,876.864136 333.879272,872.434692 330.919891,867.654297 
	C327.315582,861.856934 323.718384,856.410583 320.057892,850.600098 
	C315.679718,842.150879 311.364868,834.065674 307.022491,825.608643 
	C302.718933,815.466248 298.442871,805.695801 294.081451,795.552368 
	C288.942108,778.783936 283.888092,762.388489 278.764771,745.604858 
	C272.294037,719.868713 269.612366,693.997375 267.907227,667.535400 
	C268.653625,650.437866 268.906464,633.772461 270.146576,617.180908 
	C270.990875,605.884827 273.089996,594.671997 274.869141,583.460144 
	C276.060486,575.952637 277.674713,568.512268 279.440491,560.846558 
	C279.951996,559.523315 279.976257,558.349121 280.315460,557.274231 
	C284.861877,542.867798 289.452271,528.475159 294.357788,513.888489 
	C297.804840,505.834991 300.925842,497.972107 304.368958,489.945862 
	C307.475189,483.891357 310.259338,478.000183 313.364532,471.944031 
	C317.139526,465.222534 320.593445,458.665985 324.363495,451.951813 
	C327.157623,447.543701 329.635651,443.293243 332.429810,438.905212 
	C335.443268,434.842834 338.140594,430.918030 340.988037,426.677917 
	C343.705627,422.905304 346.273102,419.447998 348.987854,415.678711 
	C351.439056,412.281189 353.742950,409.195618 356.364563,405.967194 
	C358.469055,403.254333 360.255829,400.684326 362.389435,398.060059 
	C364.503174,396.042114 366.270081,394.078400 368.345581,391.979248 
	C370.118103,389.932007 371.582123,388.020264 373.333618,385.991089 
	C374.429749,384.951874 375.238373,384.030121 376.342468,382.983765 
	C377.774384,381.608856 378.910889,380.358612 380.353851,378.974243 
	C382.789124,376.596436 384.917938,374.352722 387.353058,371.974487 
	C389.786072,369.599243 391.912750,367.358521 394.353149,364.975586 
	C398.124237,361.595093 401.581665,358.356812 405.388062,355.062836 
	C410.174988,351.379974 414.612885,347.752808 419.360596,343.978699 
	C426.150970,338.902710 432.631561,333.973663 439.428589,328.905762 
	C445.162781,325.122437 450.580536,321.477966 456.345337,317.799622 
	C462.474487,314.216736 468.256622,310.667755 474.401031,307.062073 
	C484.174713,302.281219 493.586090,297.557037 503.361450,292.783997 
	C519.277954,287.116608 534.699341,281.090881 550.428894,276.021454 
	C561.061096,272.594879 572.127380,270.515045 583.393005,267.755798 
	C585.545593,267.429626 587.323364,267.272064 589.060852,266.917114 
	C607.712463,263.106628 626.561035,261.197510 645.588928,261.003326 
	C653.059082,260.927063 660.529724,260.888031 668.453003,260.902039 
	C675.788879,261.316040 682.695618,261.413727 689.548096,262.073883 
	C696.323486,262.726654 703.044312,263.947205 709.788940,264.919250 
	C717.178589,265.984253 724.568115,267.049835 732.171265,268.450867 
	C743.880493,271.664062 755.466736,274.228577 766.844055,277.515869 
	C776.320984,280.254059 785.552734,283.840576 795.070801,287.372803 
	C817.735229,296.772095 838.834473,308.442200 859.329956,321.983887 
	C873.516479,333.354340 887.556458,344.369690 901.151428,355.909424 
	C904.713867,358.933350 906.413574,359.351776 909.834473,355.887726 
	C934.215881,331.198456 958.813965,306.723053 983.347595,282.184082 
	C992.427795,273.101868 1001.577087,264.087952 1010.595154,254.944489 
	C1030.760498,234.498734 1050.838867,213.967056 1071.004761,193.521713 
	C1078.255127,186.170853 1085.655029,178.967484 1093.338379,171.348145 
	C1082.767822,162.297287 1072.658569,153.154846 1062.029907,144.662567 
	C1048.413574,133.783386 1034.634521,123.068924 1020.442871,112.961258 
	C1009.358398,105.066528 997.537781,98.205276 985.899902,90.567619 
	C965.060852,79.265411 944.407837,68.200272 923.636902,57.361168 
	C919.353455,55.125893 914.630249,53.733250 909.931885,51.629105 
	C894.047668,45.296940 878.456543,38.959713 862.594727,33.393703 
	C851.940918,29.655222 840.903931,27.008835 829.832764,23.542316 
	C812.109619,19.323742 794.620911,15.299012 777.060669,11.615740 
	C769.786133,10.089916 762.358337,9.294865 754.576294,8.096595 
	C753.657043,8.016814 753.157043,8.049125 752.667114,7.993017 
	C738.159912,6.331480 723.650391,4.687970 709.156311,2.918873 
	C708.371155,2.823048 707.715759,1.664078 707.000000,1.000000 
z"/>
<path fill="#3086FF" opacity="1.000000" stroke="none" 
	d="
M1005.942017,792.893616 
	C1006.127930,790.468079 1006.313843,788.042542 1006.534119,785.168823 
	C889.399109,785.168823 772.015259,785.168823 654.316040,785.168823 
	C654.316040,700.995178 654.316040,617.271606 654.316040,533.000000 
	C656.466370,533.000000 658.575806,533.000000 660.685303,533.000000 
	C860.346619,533.000000 1060.007935,533.000000 1259.669189,533.000000 
	C1269.644897,533.000000 1269.720825,532.990234 1270.974121,542.716248 
	C1273.042480,558.768188 1275.084595,574.824524 1276.970215,590.898560 
	C1277.849976,598.398315 1278.301514,605.947632 1279.045410,613.464722 
	C1279.148926,614.512085 1279.816162,615.503662 1280.611328,616.260498 
	C1281.000000,652.687561 1281.000000,689.375122 1280.611328,726.270508 
	C1279.816284,727.494507 1279.147461,728.484741 1279.044067,729.530823 
	C1277.980347,740.295044 1277.367676,751.116638 1275.928955,761.828064 
	C1273.565796,779.420715 1271.490845,797.114197 1267.826782,814.455078 
	C1262.571899,839.324097 1256.914673,864.185547 1249.708740,888.541199 
	C1243.522095,909.451111 1235.544922,929.904663 1227.199585,950.080078 
	C1220.026978,967.420593 1211.214966,984.082947 1202.780029,1000.974487 
	C1201.312012,999.972107 1199.951050,999.219116 1199.106201,998.082581 
	C1170.461182,959.548706 1142.127808,920.779846 1113.173340,882.480469 
	C1092.550171,855.201355 1071.180908,828.483215 1049.894287,801.713806 
	C1047.806152,799.087708 1044.125366,796.650757 1040.899048,796.209839 
	C1031.398193,794.911804 1021.751038,794.701477 1012.168274,793.971619 
	C1010.077637,793.812378 1008.016724,793.263245 1005.942017,792.893616 
z"/>
<path fill="transparent" opacity="1.000000" stroke="none" 
	d="
M612.000000,1309.000000 
	C408.404266,1309.000000 204.808533,1309.000000 1.000000,1309.000000 
	C1.000000,1108.307495 1.000000,907.614990 1.349553,706.123169 
	C2.132401,706.503540 2.850724,707.659485 2.951153,708.866821 
	C3.469747,715.101624 3.830105,721.349487 4.511123,727.933472 
	C6.182664,738.943848 7.269093,749.667908 9.071504,760.270325 
	C11.624420,775.287598 14.400661,790.281616 17.655420,805.160034 
	C20.341286,817.437866 23.593449,829.611084 27.100658,841.683594 
	C29.593328,850.263916 32.927620,858.599670 35.932873,867.439758 
	C38.980675,876.344238 41.626705,885.000366 45.067692,893.327942 
	C50.038754,905.358704 55.586124,917.151367 60.931820,929.426147 
	C67.281082,942.554260 73.586166,955.301880 80.035873,968.376831 
	C86.751106,979.819397 93.321709,990.934509 100.034805,1002.372437 
	C105.050301,1010.165100 109.923294,1017.634949 114.980591,1025.398193 
	C119.741348,1031.809692 124.317810,1037.927856 128.944702,1044.398682 
	C131.624237,1048.181030 134.253342,1051.610596 137.026855,1055.352783 
	C141.411942,1060.793579 145.652603,1065.921753 150.036652,1071.360840 
	C153.415955,1075.462402 156.651901,1079.252930 160.029388,1083.351074 
	C164.435196,1088.146240 168.699448,1092.633545 173.102661,1097.426514 
	C176.477539,1101.189941 179.713440,1104.647705 183.051697,1108.370850 
	C183.732407,1109.108643 184.310776,1109.581177 185.028046,1110.352051 
	C186.764023,1112.138916 188.361099,1113.627686 190.094879,1115.417480 
	C193.139587,1118.516602 196.047607,1121.314941 199.093170,1124.413574 
	C202.117844,1127.490723 205.005005,1130.267456 208.017090,1133.270020 
	C208.421310,1133.688843 208.700592,1133.881836 209.052643,1134.312500 
	C209.125412,1134.550171 209.503464,1134.872925 209.503464,1134.872925 
	C209.503464,1134.872925 209.998886,1134.832520 210.302856,1134.987427 
	C214.369415,1138.444946 218.131989,1141.747559 222.040390,1145.355469 
	C226.456406,1149.384766 230.726578,1153.108887 235.301071,1156.989258 
	C239.369080,1160.114380 243.132767,1163.083252 247.045074,1166.357910 
	C253.428604,1171.459839 259.663544,1176.255981 266.053345,1181.359619 
	C272.790131,1186.149048 279.372040,1190.630615 286.104767,1195.418945 
	C291.137054,1198.834595 296.018524,1201.943726 301.056519,1205.364014 
	C308.129517,1209.823975 315.045959,1213.972778 322.142731,1218.412354 
	C327.536407,1221.508911 332.749756,1224.314697 338.124420,1227.419678 
	C341.843048,1229.517700 345.400391,1231.316528 349.139893,1233.407837 
	C353.217377,1235.730713 357.112640,1237.761230 361.321045,1239.969971 
	C366.739105,1242.466553 371.844025,1244.784912 377.135193,1247.399658 
	C386.864044,1251.818604 396.406647,1255.941040 406.157867,1260.362305 
	C407.431732,1261.050049 408.493652,1261.448364 409.562683,1261.826660 
	C423.027008,1266.589844 436.492401,1271.350098 450.168518,1276.416260 
	C480.475739,1286.244019 510.868744,1294.653809 542.186462,1299.028809 
	C564.101746,1302.090210 586.129272,1304.345459 608.093506,1307.067017 
	C609.454590,1307.235596 610.700500,1308.334106 612.000000,1309.000000 
z"/>
<path fill="transparent" opacity="1.000000" stroke="none" 
	d="
M0.999996,603.000000 
	C1.000000,402.403809 1.000000,201.807587 1.000000,1.000000 
	C201.359116,1.000000 401.718323,1.000000 602.755615,1.402050 
	C602.919250,2.181752 602.433350,2.839949 601.886230,2.895574 
	C591.296936,3.972125 580.670532,4.739421 570.113403,6.061993 
	C558.156189,7.559949 546.149841,9.009343 534.362366,11.438217 
	C516.107117,15.199800 497.891083,19.298552 479.900330,24.151148 
	C465.084503,28.147358 450.619873,33.445477 435.617737,38.105373 
	C406.531677,48.170792 378.665436,60.252243 351.877441,74.688065 
	C337.024963,82.691933 322.584534,91.460388 307.603882,99.945930 
	C299.485748,105.300049 291.722076,110.592461 283.601868,115.940887 
	C278.484283,119.291565 273.723206,122.586227 268.647888,126.025902 
	C262.542908,130.740860 256.752167,135.310806 250.644928,140.025131 
	C244.552109,144.835266 238.775772,149.501038 232.665894,154.192749 
	C227.874207,158.440826 223.416092,162.662979 218.642776,167.027344 
	C214.870880,170.408401 211.414169,173.647202 207.647247,177.025757 
	C204.878082,179.404678 202.419128,181.643829 199.651489,184.020111 
	C196.214661,187.400284 193.086502,190.643326 189.649826,194.023773 
	C186.546722,197.402786 183.752121,200.644409 180.651215,204.021515 
	C178.217072,206.398895 176.089233,208.640793 173.651184,211.021408 
	C170.546646,214.401932 167.752304,217.643738 164.647217,221.024307 
	C161.875412,224.072128 159.414352,226.981171 156.639832,230.030548 
	C153.848633,233.430527 151.370880,236.690155 148.583267,240.083984 
	C145.813095,243.462296 143.352783,246.706406 140.582352,250.084579 
	C137.237015,254.146774 134.201782,258.074921 131.019592,262.316650 
	C128.879807,265.403534 126.886993,268.176849 124.580597,271.086304 
	C120.817352,276.136139 117.367706,281.049835 113.611382,286.125885 
	C108.831017,293.511841 104.357330,300.735382 99.567184,308.100220 
	C95.798477,314.144287 92.346222,320.047119 88.578812,326.108765 
	C87.503998,327.688965 86.742912,329.109619 85.984917,330.531921 
	C81.290596,339.340546 76.596962,348.149567 71.587372,357.122803 
	C63.398705,374.893402 55.525757,392.499634 47.366302,410.385132 
	C36.882587,436.673737 27.911179,463.101624 21.122057,490.203430 
	C17.583107,504.330658 14.836267,518.663879 12.001259,532.957520 
	C9.790485,544.103882 7.843060,555.308716 6.077429,566.534546 
	C5.117354,572.638733 4.780552,578.840942 4.088978,585.435730 
	C3.673124,590.957764 3.400102,596.049744 2.906621,601.120239 
	C2.840248,601.802185 1.662893,602.376099 0.999996,603.000000 
z"/>
<path fill="transparent" opacity="1.000000" stroke="none" 
	d="
M1203.127930,1001.045166 
	C1211.214966,984.082947 1220.026978,967.420593 1227.199585,950.080078 
	C1235.544922,929.904663 1243.522095,909.451111 1249.708740,888.541199 
	C1256.914673,864.185547 1262.571899,839.324097 1267.826782,814.455078 
	C1271.490845,797.114197 1273.565796,779.420715 1275.928955,761.828064 
	C1277.367676,751.116638 1277.980347,740.295044 1279.044067,729.530823 
	C1279.147461,728.484741 1279.816284,727.494507 1280.611328,726.739197 
	C1281.000000,920.927063 1281.000000,1114.854126 1281.000000,1309.000000 
	C1087.645874,1309.000000 894.291565,1309.000000 700.350708,1308.574219 
	C700.277039,1307.789062 700.767517,1307.155029 701.306274,1307.110840 
	C714.435669,1306.035767 727.592346,1305.244263 740.697205,1303.933350 
	C752.108398,1302.791870 763.506409,1301.352539 774.829224,1299.539185 
	C786.441467,1297.679321 798.052307,1295.614380 809.489380,1292.903931 
	C826.110107,1288.965088 842.574463,1284.366943 859.494385,1280.025879 
	C871.489807,1276.232422 883.208862,1272.771851 894.667603,1268.596924 
	C903.956299,1265.212524 912.932068,1260.969482 922.427673,1257.060059 
	C932.540039,1252.619629 942.271362,1248.226440 952.349182,1243.777954 
	C960.499634,1239.498413 968.303467,1235.274170 976.466675,1231.014893 
	C981.921021,1228.001831 987.015991,1225.023682 992.426392,1221.897217 
	C996.839966,1219.206055 1000.938110,1216.663086 1005.391052,1214.058838 
	C1011.179749,1210.367798 1016.613708,1206.737793 1022.362671,1202.958252 
	C1025.801147,1200.574951 1028.924561,1198.341431 1032.360107,1195.961670 
	C1035.130249,1193.913330 1037.588257,1192.011108 1040.397705,1190.054932 
	C1044.181519,1187.370605 1047.613770,1184.740234 1051.354980,1181.961792 
	C1056.457153,1177.910278 1061.250244,1174.006714 1066.351074,1169.960327 
	C1072.454712,1164.581787 1078.250366,1159.346069 1084.353027,1153.965210 
	C1092.121826,1146.582520 1099.583862,1139.344971 1107.351318,1131.965576 
	C1116.212891,1122.517944 1124.768921,1113.212402 1133.604126,1103.665527 
	C1137.541504,1098.828369 1141.319580,1094.322021 1144.833740,1089.618408 
	C1152.640747,1079.168823 1160.315552,1068.620361 1168.361694,1057.961182 
	C1169.406860,1056.750488 1170.191406,1055.725098 1170.854126,1054.626221 
	C1181.621216,1036.771362 1192.372803,1018.907227 1203.127930,1001.045166 
z"/>
<path fill="#FF4640" opacity="1.000000" stroke="none" 
	d="
M435.999603,38.166615 
	C450.619873,33.445477 465.084503,28.147358 479.900330,24.151148 
	C497.891083,19.298552 516.107117,15.199800 534.362366,11.438217 
	C546.149841,9.009343 558.156189,7.559949 570.113403,6.061993 
	C580.670532,4.739421 591.296936,3.972125 601.886230,2.895574 
	C602.433350,2.839949 602.919250,2.181752 603.216797,1.402050 
	C637.354248,1.000000 671.708435,1.000000 706.531372,1.000000 
	C707.715759,1.664078 708.371155,2.823048 709.156311,2.918873 
	C723.650391,4.687970 738.159912,6.331480 752.667114,7.993017 
	C753.157043,8.049125 753.657043,8.016814 754.554565,8.459362 
	C754.031006,11.010262 753.236328,13.196805 752.159180,15.234034 
	C741.818665,34.791111 730.801697,54.019257 721.186340,73.925072 
	C700.961182,115.795502 687.107056,159.921036 677.531189,205.347458 
	C673.663147,223.696655 671.136902,242.328720 668.000122,260.832062 
	C660.529724,260.888031 653.059082,260.927063 645.588928,261.003326 
	C626.561035,261.197510 607.712463,263.106628 589.060852,266.917114 
	C587.323364,267.272064 585.545593,267.429626 583.314697,267.433228 
	C579.609009,263.672455 576.262512,260.253571 573.161072,256.625183 
	C560.653870,241.993088 547.788696,227.639267 535.855713,212.549988 
	C513.033691,183.691483 491.933136,153.554871 474.585297,121.066025 
	C461.203125,96.004013 449.021423,70.298935 436.483887,44.792309 
	C435.578094,42.949615 436.127045,40.391888 435.999603,38.166615 
z"/>
<path fill="#FCCD05" opacity="1.000000" stroke="none" 
	d="
M0.999996,603.468628 
	C1.662893,602.376099 2.840248,601.802185 2.906621,601.120239 
	C3.400102,596.049744 3.673124,590.957764 4.449404,585.457031 
	C6.535205,585.775452 8.297968,586.329468 9.821926,587.270325 
	C31.346899,600.558716 52.303223,614.880737 74.467957,626.993164 
	C106.147179,644.305054 138.674637,660.069275 170.924957,676.325623 
	C175.028946,678.394409 179.562317,680.353943 184.042496,680.761353 
	C190.921722,681.386902 197.997833,681.190369 204.865936,680.338867 
	C224.151810,677.947632 243.597137,676.196655 262.008453,669.201721 
	C263.838531,668.506348 265.887146,668.386169 267.834320,667.998962 
	C269.612366,693.997375 272.294037,719.868713 278.350128,745.606812 
	C270.136444,748.008667 262.151917,749.652466 254.419189,752.093872 
	C213.235931,765.096375 173.443314,781.397034 135.278046,801.747253 
	C106.727699,816.970581 79.590134,834.281372 53.757599,853.705750 
	C47.816372,858.173157 41.844219,862.599426 35.886292,867.044617 
	C32.927620,858.599670 29.593328,850.263916 27.100658,841.683594 
	C23.593449,829.611084 20.341286,817.437866 17.655420,805.160034 
	C14.400661,790.281616 11.624420,775.287598 9.071504,760.270325 
	C7.269093,749.667908 6.182664,738.943848 4.828948,727.670166 
	C28.286005,714.274353 51.690701,701.482544 75.943611,688.227051 
	C71.694519,686.692200 67.995552,684.669128 64.075699,684.054382 
	C42.533566,680.675842 21.001099,677.389832 1.000000,668.000000 
	C1.000000,646.645752 1.000000,625.291565 0.999996,603.468628 
z"/>
<path fill="#10BC5C" opacity="1.000000" stroke="none" 
	d="
M612.468628,1309.000000 
	C610.700500,1308.334106 609.454590,1307.235596 608.093506,1307.067017 
	C586.129272,1304.345459 564.101746,1302.090210 542.186462,1299.028809 
	C510.868744,1294.653809 480.475739,1286.244019 450.178741,1276.002686 
	C450.330841,1273.507324 450.374146,1271.595337 451.082520,1269.973877 
	C464.364990,1239.571411 479.190887,1209.924072 496.398010,1181.563232 
	C516.880127,1147.804565 539.529053,1115.547241 565.622742,1085.809204 
	C570.166565,1080.630615 573.776611,1075.105103 574.401672,1067.789062 
	C575.163086,1058.877441 576.764038,1050.037476 578.001831,1041.166504 
	C587.173584,1042.549438 596.335815,1043.999756 605.520142,1045.293579 
	C612.637268,1046.296021 619.760376,1047.400391 626.919983,1047.921509 
	C635.951294,1048.578735 645.022339,1048.689209 654.538086,1049.558594 
	C654.666565,1136.387817 654.333252,1222.693848 654.000000,1309.000000 
	C640.312439,1309.000000 626.624878,1309.000000 612.468628,1309.000000 
z"/>
<path fill="#0CBA66" opacity="1.000000" stroke="none" 
	d="
M654.468628,1309.000000 
	C654.333252,1222.693848 654.666565,1136.387817 654.999634,1049.624023 
	C664.895508,1048.776245 674.829407,1048.797974 684.678650,1047.895996 
	C698.185303,1046.659058 711.626587,1044.710938 725.099731,1043.099731 
	C726.411682,1042.942871 727.750793,1043.012695 729.546509,1043.343872 
	C731.010315,1050.581543 732.168213,1057.433594 732.960999,1064.327759 
	C734.153442,1074.697021 734.834900,1085.131104 736.268677,1095.463379 
	C736.800110,1099.293091 738.052307,1103.513184 740.337219,1106.521240 
	C748.663025,1117.482178 757.630676,1127.953003 766.236389,1138.704468 
	C798.302490,1178.765869 826.646545,1221.308594 851.206055,1266.370972 
	C853.724976,1270.992920 856.467041,1275.493164 859.105530,1280.049927 
	C842.574463,1284.366943 826.110107,1288.965088 809.489380,1292.903931 
	C798.052307,1295.614380 786.441467,1297.679321 774.829224,1299.539185 
	C763.506409,1301.352539 752.108398,1302.791870 740.697205,1303.933350 
	C727.592346,1305.244263 714.435669,1306.035767 701.306274,1307.110840 
	C700.767517,1307.155029 700.277039,1307.789062 699.882080,1308.574219 
	C684.979126,1309.000000 669.958191,1309.000000 654.468628,1309.000000 
z"/>
<path fill="#FECD0A" opacity="1.000000" stroke="none" 
	d="
M1.000000,668.468628 
	C21.001099,677.389832 42.533566,680.675842 64.075699,684.054382 
	C67.995552,684.669128 71.694519,686.692200 75.943611,688.227051 
	C51.690701,701.482544 28.286005,714.274353 4.563482,727.329529 
	C3.830105,721.349487 3.469747,715.101624 2.951153,708.866821 
	C2.850724,707.659485 2.132401,706.503540 1.349553,705.661926 
	C1.000000,693.645752 1.000000,681.291565 1.000000,668.468628 
z"/>
<path fill="#FECD0A" opacity="1.000000" stroke="none" 
	d="
M267.907227,667.535400 
	C265.887146,668.386169 263.838531,668.506348 262.008453,669.201721 
	C243.597137,676.196655 224.151810,677.947632 204.865936,680.338867 
	C197.997833,681.190369 190.921722,681.386902 184.042496,680.761353 
	C179.562317,680.353943 175.028946,678.394409 170.924957,676.325623 
	C138.674637,660.069275 106.147179,644.305054 74.467957,626.993164 
	C52.303223,614.880737 31.346899,600.558716 9.821926,587.270325 
	C8.297968,586.329468 6.535205,585.775452 4.523048,585.020264 
	C4.780552,578.840942 5.117354,572.638733 6.077429,566.534546 
	C7.843060,555.308716 9.790485,544.103882 12.001259,532.957520 
	C14.836267,518.663879 17.583107,504.330658 21.122057,490.203430 
	C27.911179,463.101624 36.882587,436.673737 47.528854,410.746552 
	C50.028534,413.429016 51.744812,416.407532 54.186184,418.565826 
	C66.366676,429.333923 78.334373,440.403809 91.140343,450.388367 
	C108.422615,463.863007 126.023849,477.004639 144.192123,489.244324 
	C160.851761,500.467560 178.135483,510.864014 195.711746,520.600220 
	C214.750519,531.146545 234.363159,540.675415 253.894226,550.305847 
	C262.072296,554.338257 270.684723,557.489807 279.099670,561.041809 
	C277.674713,568.512268 276.060486,575.952637 274.869141,583.460144 
	C273.089996,594.671997 270.990875,605.884827 270.146576,617.180908 
	C268.906464,633.772461 268.653625,650.437866 267.907227,667.535400 
z"/>
<path fill="#FB4E5A" opacity="1.000000" stroke="none" 
	d="
M986.044250,90.884796 
	C997.537781,98.205276 1009.358398,105.066528 1020.442871,112.961258 
	C1034.634521,123.068924 1048.413574,133.783386 1062.029907,144.662567 
	C1072.658569,153.154846 1082.767822,162.297287 1093.338379,171.348145 
	C1085.655029,178.967484 1078.255127,186.170853 1071.004761,193.521713 
	C1050.838867,213.967056 1030.760498,234.498734 1010.595154,254.944489 
	C1001.577087,264.087952 992.427795,273.101868 983.347595,282.184082 
	C958.813965,306.723053 934.215881,331.198456 909.834473,355.887726 
	C906.413574,359.351776 904.713867,358.933350 901.151428,355.909424 
	C887.556458,344.369690 873.516479,333.354340 859.408813,321.600891 
	C859.448914,319.760406 859.768982,318.469971 859.989746,317.162781 
	C862.917847,299.822937 864.979736,282.284454 868.920349,265.178528 
	C878.205750,224.871307 894.517517,187.525421 919.032410,154.011032 
	C932.430115,135.694946 947.507385,118.935287 965.905090,105.420509 
	C972.577026,100.519356 979.328857,95.726868 986.044250,90.884796 
z"/>
<path fill="#FF4C3C" opacity="1.000000" stroke="none" 
	d="
M435.617737,38.105370 
	C436.127045,40.391888 435.578094,42.949615 436.483887,44.792309 
	C449.021423,70.298935 461.203125,96.004013 474.585297,121.066025 
	C491.933136,153.554871 513.033691,183.691483 535.855713,212.549988 
	C547.788696,227.639267 560.653870,241.993088 573.161072,256.625183 
	C576.262512,260.253571 579.609009,263.672455 582.921204,267.510223 
	C572.127380,270.515045 561.061096,272.594879 550.428894,276.021454 
	C534.699341,281.090881 519.277954,287.116608 503.292938,292.448425 
	C499.519226,288.579041 496.597626,284.433075 492.732361,281.553925 
	C487.711060,277.813751 481.553497,275.590912 476.565125,271.816223 
	C463.182037,261.689270 449.792511,251.512207 437.076721,240.574768 
	C414.031189,220.752274 390.887390,200.977707 368.894470,180.018555 
	C350.979309,162.945465 334.514374,144.328232 317.756378,126.074409 
	C311.128418,118.854820 302.063446,112.017296 307.958374,99.884216 
	C322.584534,91.460388 337.024963,82.691933 351.877441,74.688065 
	C378.665436,60.252243 406.531677,48.170792 435.617737,38.105370 
z"/>
<path fill="#FC4C53" opacity="1.000000" stroke="none" 
	d="
M985.899902,90.567627 
	C979.328857,95.726868 972.577026,100.519356 965.905090,105.420509 
	C947.507385,118.935287 932.430115,135.694946 919.032410,154.011032 
	C894.517517,187.525421 878.205750,224.871307 868.920349,265.178528 
	C864.979736,282.284454 862.917847,299.822937 859.989746,317.162781 
	C859.768982,318.469971 859.448914,319.760406 859.096069,321.441650 
	C838.834473,308.442200 817.735229,296.772095 795.344910,287.110962 
	C796.624817,281.058685 798.056152,275.629913 798.952026,270.114197 
	C805.200073,231.644196 816.621094,194.742325 832.876953,159.375641 
	C848.876526,124.566574 869.659241,92.792976 895.369141,64.363152 
	C899.637756,59.642956 905.164429,56.060440 910.109741,51.952202 
	C914.630249,53.733250 919.353455,55.125893 923.636902,57.361168 
	C944.407837,68.200272 965.060852,79.265411 985.899902,90.567627 
z"/>
<path fill="#FD494D" opacity="1.000000" stroke="none" 
	d="
M909.931885,51.629097 
	C905.164429,56.060440 899.637756,59.642956 895.369141,64.363152 
	C869.659241,92.792976 848.876526,124.566574 832.876953,159.375641 
	C816.621094,194.742325 805.200073,231.644196 798.952026,270.114197 
	C798.056152,275.629913 796.624817,281.058685 795.167236,286.789520 
	C785.552734,283.840576 776.320984,280.254059 766.844055,277.515869 
	C755.466736,274.228577 743.880493,271.664062 732.180664,268.002747 
	C734.894653,250.885483 737.317871,234.444962 740.825012,218.238998 
	C750.850586,171.911621 767.828064,128.082733 790.428223,86.510239 
	C798.586731,71.503014 808.329285,57.352180 817.458923,42.879936 
	C821.511475,36.455887 825.836792,30.203924 830.038330,23.873856 
	C840.903931,27.008835 851.940918,29.655222 862.594727,33.393703 
	C878.456543,38.959713 894.047668,45.296940 909.931885,51.629097 
z"/>
<path fill="#FE4746" opacity="1.000000" stroke="none" 
	d="
M829.832764,23.542328 
	C825.836792,30.203924 821.511475,36.455887 817.458923,42.879936 
	C808.329285,57.352180 798.586731,71.503014 790.428223,86.510239 
	C767.828064,128.082733 750.850586,171.911621 740.825012,218.238998 
	C737.317871,234.444962 734.894653,250.885483 731.967102,267.667023 
	C724.568115,267.049835 717.178589,265.984253 709.788940,264.919250 
	C703.044312,263.947205 696.323486,262.726654 689.548096,262.073883 
	C682.695618,261.413727 675.788879,261.316040 668.453003,260.902039 
	C671.136902,242.328720 673.663147,223.696655 677.531189,205.347458 
	C687.107056,159.921036 700.961182,115.795502 721.186340,73.925072 
	C730.801697,54.019257 741.818665,34.791111 752.159180,15.234034 
	C753.236328,13.196805 754.031006,11.010262 754.978516,8.530238 
	C762.358337,9.294865 769.786133,10.089916 777.060669,11.615740 
	C794.620911,15.299012 812.109619,19.323742 829.832764,23.542328 
z"/>
<path fill="#268BF2" opacity="1.000000" stroke="none" 
	d="
M1202.780151,1000.974548 
	C1192.372803,1018.907227 1181.621216,1036.771362 1170.854126,1054.626221 
	C1170.191406,1055.725098 1169.406860,1056.750488 1168.192627,1057.660156 
	C1138.641968,1017.602356 1110.014526,977.366760 1080.380249,937.886841 
	C1055.257812,904.417542 1029.010864,871.791016 1003.128906,838.895752 
	C1000.995667,836.184509 997.844727,834.273865 995.166626,831.991272 
	C998.528809,819.098816 1001.890991,806.206299 1005.597656,793.103760 
	C1008.016724,793.263245 1010.077637,793.812378 1012.168274,793.971619 
	C1021.751038,794.701477 1031.398193,794.911804 1040.899048,796.209839 
	C1044.125366,796.650757 1047.806152,799.087708 1049.894287,801.713806 
	C1071.180908,828.483215 1092.550171,855.201355 1113.173340,882.480469 
	C1142.127808,920.779846 1170.461182,959.548706 1199.106201,998.082581 
	C1199.951050,999.219116 1201.312012,999.972107 1202.780151,1000.974548 
z"/>
<path fill="#0AB672" opacity="1.000000" stroke="none" 
	d="
M859.494385,1280.025879 
	C856.467041,1275.493164 853.724976,1270.992920 851.206055,1266.370972 
	C826.646545,1221.308594 798.302490,1178.765869 766.236389,1138.704468 
	C757.630676,1127.953003 748.663025,1117.482178 740.337219,1106.521240 
	C738.052307,1103.513184 736.800110,1099.293091 736.268677,1095.463379 
	C734.834900,1085.131104 734.153442,1074.697021 732.960999,1064.327759 
	C732.168213,1057.433594 731.010315,1050.581543 729.979614,1043.308105 
	C739.257996,1040.938110 748.571716,1038.966553 757.887817,1037.006226 
	C759.634277,1036.638794 761.390198,1036.316406 763.621460,1036.272949 
	C767.900330,1041.372803 771.643372,1046.218262 775.508484,1050.964355 
	C790.918030,1069.885620 807.114990,1088.220825 821.624634,1107.807007 
	C843.781738,1137.716553 865.209595,1168.192627 886.116760,1198.991699 
	C898.896667,1217.818237 910.122742,1237.699707 922.046631,1257.107300 
	C912.932068,1260.969482 903.956299,1265.212524 894.667603,1268.596924 
	C883.208862,1272.771851 871.489807,1276.232422 859.494385,1280.025879 
z"/>
<path fill="#EFCC05" opacity="1.000000" stroke="none" 
	d="
M35.932880,867.439758 
	C41.844219,862.599426 47.816372,858.173157 53.757599,853.705750 
	C79.590134,834.281372 106.727699,816.970581 135.278046,801.747253 
	C173.443314,781.397034 213.235931,765.096375 254.419189,752.093872 
	C262.151917,749.652466 270.136444,748.008667 278.419434,745.994873 
	C283.888092,762.388489 288.942108,778.783936 293.695129,795.633179 
	C291.151154,796.707703 288.889252,797.267578 286.667938,797.958130 
	C246.848724,810.336670 208.523315,826.222046 172.014847,846.457458 
	C133.432205,867.842468 98.054688,893.488770 66.762550,924.670898 
	C65.050865,926.376648 62.857044,927.598511 60.887638,929.045593 
	C55.586124,917.151367 50.038754,905.358704 45.067692,893.327942 
	C41.626705,885.000366 38.980675,876.344238 35.932880,867.439758 
z"/>
<path fill="#1B91E2" opacity="1.000000" stroke="none" 
	d="
M995.084595,832.364929 
	C997.844727,834.273865 1000.995667,836.184509 1003.128906,838.895752 
	C1029.010864,871.791016 1055.257812,904.417542 1080.380249,937.886841 
	C1110.014526,977.366760 1138.641968,1017.602356 1167.875244,1057.811279 
	C1160.315552,1068.620361 1152.640747,1079.168823 1144.833740,1089.618408 
	C1141.319580,1094.322021 1137.541504,1098.828369 1133.510498,1103.265137 
	C1127.056519,1094.187622 1121.129883,1085.158936 1114.865234,1076.371338 
	C1095.556519,1049.286621 1076.509766,1022.002441 1056.627930,995.342468 
	C1033.976562,964.968628 1010.602356,935.131897 987.386841,905.182190 
	C982.219543,898.515991 976.403076,892.353149 970.885498,885.958496 
	C973.569092,880.757751 976.517029,875.674133 978.883057,870.332703 
	C984.404907,857.867188 989.647034,845.277832 995.084595,832.364929 
z"/>
<path fill="#FFC00B" opacity="1.000000" stroke="none" 
	d="
M279.440491,560.846558 
	C270.684723,557.489807 262.072296,554.338257 253.894226,550.305847 
	C234.363159,540.675415 214.750519,531.146545 195.711746,520.600220 
	C178.135483,510.864014 160.851761,500.467560 144.192123,489.244324 
	C126.023849,477.004639 108.422615,463.863007 91.140343,450.388367 
	C78.334373,440.403809 66.366676,429.333923 54.186184,418.565826 
	C51.744812,416.407532 50.028534,413.429016 47.815365,410.467285 
	C55.525757,392.499634 63.398705,374.893402 71.881439,357.291260 
	C88.503380,372.541718 103.921234,388.481903 120.689079,402.846161 
	C138.701767,418.276764 157.474243,432.943451 176.819794,446.668427 
	C212.464462,471.957001 250.771957,492.749237 290.536591,510.862885 
	C291.905853,511.486633 292.875732,512.987183 294.031738,514.079102 
	C289.452271,528.475159 284.861877,542.867798 280.315460,557.274231 
	C279.976257,558.349121 279.951996,559.523315 279.440491,560.846558 
z"/>
<path fill="#18BD50" opacity="1.000000" stroke="none" 
	d="
M577.613525,1041.082275 
	C576.764038,1050.037476 575.163086,1058.877441 574.401672,1067.789062 
	C573.776611,1075.105103 570.166565,1080.630615 565.622742,1085.809204 
	C539.529053,1115.547241 516.880127,1147.804565 496.398010,1181.563232 
	C479.190887,1209.924072 464.364990,1239.571411 451.082520,1269.973877 
	C450.374146,1271.595337 450.330841,1273.507324 449.967712,1275.697510 
	C436.492401,1271.350098 423.027008,1266.589844 409.562683,1261.826660 
	C408.493652,1261.448364 407.431732,1261.050049 406.234497,1259.999512 
	C410.529053,1249.303467 414.693848,1239.143799 419.431366,1229.258545 
	C433.454041,1199.999268 448.348450,1171.163086 466.175476,1144.027954 
	C479.852417,1123.209717 494.034210,1102.674194 508.974030,1082.749756 
	C521.598083,1065.913574 535.633057,1050.135254 549.043579,1033.888794 
	C558.437439,1036.258545 567.831299,1038.628296 577.613525,1041.082275 
z"/>
<path fill="#1397D3" opacity="1.000000" stroke="none" 
	d="
M970.569519,886.100464 
	C976.403076,892.353149 982.219543,898.515991 987.386841,905.182190 
	C1010.602356,935.131897 1033.976562,964.968628 1056.627930,995.342468 
	C1076.509766,1022.002441 1095.556519,1049.286621 1114.865234,1076.371338 
	C1121.129883,1085.158936 1127.056519,1094.187622 1133.231323,1103.506348 
	C1124.768921,1113.212402 1116.212891,1122.517944 1107.127930,1131.708862 
	C1105.590942,1130.502686 1104.437500,1129.512085 1103.597900,1128.303589 
	C1096.382080,1117.916992 1089.349731,1107.400879 1082.022095,1097.094360 
	C1063.228760,1070.661255 1044.777344,1043.966919 1025.327515,1018.023071 
	C1000.308411,984.650208 974.448608,951.907532 948.950928,918.893433 
	C953.809998,911.592712 958.700134,904.312378 963.514587,896.982422 
	C965.834290,893.450623 968.011719,889.825317 970.569519,886.100464 
z"/>
<path fill="#DDCA03" opacity="1.000000" stroke="none" 
	d="
M60.931820,929.426147 
	C62.857044,927.598511 65.050865,926.376648 66.762550,924.670898 
	C98.054688,893.488770 133.432205,867.842468 172.014847,846.457458 
	C208.523315,826.222046 246.848724,810.336670 286.667938,797.958130 
	C288.889252,797.267578 291.151154,796.707703 293.780457,796.006165 
	C298.442871,805.695801 302.718933,815.466248 306.618286,825.618530 
	C304.306763,826.449280 302.328674,826.763245 300.443420,827.367065 
	C262.476013,839.526794 225.993149,854.980713 191.488220,875.141968 
	C153.613876,897.271973 119.386322,923.739685 90.509392,956.913879 
	C87.145500,960.778503 83.438950,964.344910 79.891235,968.049500 
	C73.586166,955.301880 67.281082,942.554260 60.931820,929.426147 
z"/>
<path fill="#09B37D" opacity="1.000000" stroke="none" 
	d="
M922.427673,1257.060059 
	C910.122742,1237.699707 898.896667,1217.818237 886.116760,1198.991699 
	C865.209595,1168.192627 843.781738,1137.716553 821.624634,1107.807007 
	C807.114990,1088.220825 790.918030,1069.885620 775.508484,1050.964355 
	C771.643372,1046.218262 767.900330,1041.372803 764.032471,1036.225586 
	C774.698730,1032.577271 785.433777,1029.276245 796.708130,1026.234253 
	C798.040222,1027.555298 798.797363,1028.646118 799.631226,1029.674805 
	C814.900085,1048.509888 830.614502,1067.002808 845.366150,1086.234375 
	C879.090332,1130.199951 911.016846,1175.449707 940.066528,1222.671875 
	C944.306763,1229.564697 948.036621,1236.771606 952.002625,1243.833130 
	C942.271362,1248.226440 932.540039,1252.619629 922.427673,1257.060059 
z"/>
<path fill="#CCC903" opacity="1.000000" stroke="none" 
	d="
M80.035866,968.376831 
	C83.438950,964.344910 87.145500,960.778503 90.509392,956.913879 
	C119.386322,923.739685 153.613876,897.271973 191.488220,875.141968 
	C225.993149,854.980713 262.476013,839.526794 300.443420,827.367065 
	C302.328674,826.763245 304.306763,826.449280 306.645813,825.990479 
	C311.364868,834.065674 315.679718,842.150879 319.680359,850.670654 
	C292.766846,859.364563 266.941895,869.646423 242.058792,882.094604 
	C220.023483,893.118042 198.882523,905.746216 179.114304,920.564026 
	C155.188065,938.498779 133.442810,958.679565 115.058701,982.349487 
	C109.975250,988.894470 104.946281,995.481750 99.892319,1002.049683 
	C93.321709,990.934509 86.751106,979.819397 80.035866,968.376831 
z"/>
<path fill="#20BE46" opacity="1.000000" stroke="none" 
	d="
M548.831543,1033.582520 
	C535.633057,1050.135254 521.598083,1065.913574 508.974030,1082.749756 
	C494.034210,1102.674194 479.852417,1123.209717 466.175476,1144.027954 
	C448.348450,1171.163086 433.454041,1199.999268 419.431366,1229.258545 
	C414.693848,1239.143799 410.529053,1249.303467 406.025879,1259.700684 
	C396.406647,1255.941040 386.864044,1251.818604 377.286194,1247.066650 
	C384.678558,1230.273071 391.568176,1213.833496 399.675293,1198.017822 
	C408.995911,1179.834717 419.103668,1162.034912 429.384979,1144.368530 
	C450.407532,1108.245728 474.345642,1074.115112 500.723572,1041.691284 
	C505.937134,1035.282715 510.912689,1028.680664 515.998047,1022.167969 
	C526.871826,1025.870728 537.745667,1029.573486 548.831543,1033.582520 
z"/>
<path fill="#0E9BC8" opacity="1.000000" stroke="none" 
	d="
M948.640259,919.034424 
	C974.448608,951.907532 1000.308411,984.650208 1025.327515,1018.023071 
	C1044.777344,1043.966919 1063.228760,1070.661255 1082.022095,1097.094360 
	C1089.349731,1107.400879 1096.382080,1117.916992 1103.597900,1128.303589 
	C1104.437500,1129.512085 1105.590942,1130.502686 1106.822510,1131.850830 
	C1099.583862,1139.344971 1092.121826,1146.582520 1084.203735,1153.650024 
	C1075.443604,1141.229858 1067.304077,1128.864258 1058.801758,1116.753540 
	C1040.748169,1091.037598 1023.000732,1065.084961 1004.217957,1039.908081 
	C979.588135,1006.893738 954.080566,974.534241 928.950562,941.893066 
	C935.410217,934.320496 941.869934,926.747925 948.640259,919.034424 
z"/>
<path fill="#FFB90C" opacity="1.000000" stroke="none" 
	d="
M294.357788,513.888489 
	C292.875732,512.987183 291.905853,511.486633 290.536591,510.862885 
	C250.771957,492.749237 212.464462,471.957001 176.819794,446.668427 
	C157.474243,432.943451 138.701767,418.276764 120.689079,402.846161 
	C103.921234,388.481903 88.503380,372.541718 72.197159,357.126892 
	C76.596962,348.149567 81.290596,339.340546 85.984917,330.531921 
	C86.742912,329.109619 87.503998,327.688965 88.813339,326.386353 
	C90.192467,328.447327 90.620941,330.727051 91.921753,332.272522 
	C97.155014,338.490051 102.250854,344.911469 108.137886,350.473938 
	C125.632545,367.004120 142.720047,384.099762 161.394714,399.209442 
	C180.850861,414.951416 201.272217,429.765869 222.544708,442.928192 
	C247.379700,458.294800 273.609772,471.403534 299.173035,485.602722 
	C301.052246,486.646515 302.433868,488.586060 304.046814,490.109192 
	C300.925842,497.972107 297.804840,505.834991 294.357788,513.888489 
z"/>
<path fill="#FF5636" opacity="1.000000" stroke="none" 
	d="
M307.603882,99.945923 
	C302.063446,112.017296 311.128418,118.854820 317.756378,126.074409 
	C334.514374,144.328232 350.979309,162.945465 368.894470,180.018555 
	C390.887390,200.977707 414.031189,220.752274 437.076721,240.574768 
	C449.792511,251.512207 463.182037,261.689270 476.565125,271.816223 
	C481.553497,275.590912 487.711060,277.813751 492.732361,281.553925 
	C496.597626,284.433075 499.519226,288.579041 502.928955,292.497253 
	C493.586090,297.557037 484.174713,302.281219 474.375519,306.689636 
	C472.854950,304.398193 472.166565,301.871979 470.515045,300.539154 
	C461.871307,293.563385 452.828247,287.080750 444.214569,280.069702 
	C429.162292,267.818024 414.187653,255.462982 399.437653,242.850525 
	C388.846008,233.793808 378.569397,224.359406 368.340576,214.890015 
	C356.640778,204.058838 344.804749,193.340210 333.653351,181.959808 
	C319.130066,167.138275 305.488892,151.450745 290.920898,136.675400 
	C284.883087,130.551651 281.455475,124.442802 283.958405,115.884872 
	C291.722076,110.592461 299.485748,105.300049 307.603882,99.945923 
z"/>
<path fill="#08B088" opacity="1.000000" stroke="none" 
	d="
M952.349182,1243.777954 
	C948.036621,1236.771606 944.306763,1229.564697 940.066528,1222.671875 
	C911.016846,1175.449707 879.090332,1130.199951 845.366150,1086.234375 
	C830.614502,1067.002808 814.900085,1048.509888 799.631226,1029.674805 
	C798.797363,1028.646118 798.040222,1027.555298 797.098633,1026.183472 
	C804.347717,1022.923279 811.745422,1019.972961 819.853210,1017.062378 
	C821.240662,1017.553467 822.085815,1017.870483 822.570862,1018.475952 
	C836.156799,1035.437256 849.974365,1052.222290 863.190918,1069.467773 
	C878.137573,1088.970459 893.040955,1108.542114 907.057373,1128.713379 
	C926.774902,1157.089111 945.648438,1186.051147 964.907654,1214.745728 
	C968.581909,1220.220093 972.371216,1225.617065 976.107361,1231.049805 
	C968.303467,1235.274170 960.499634,1239.498413 952.349182,1243.777954 
z"/>
<path fill="#FF672D" opacity="1.000000" stroke="none" 
	d="
M232.999420,154.166809 
	C238.775772,149.501038 244.552109,144.835266 250.652328,140.443985 
	C249.912018,146.176208 250.347473,151.397278 254.299423,155.634796 
	C261.983582,163.874146 269.660614,172.132614 277.647522,180.074524 
	C294.158813,196.492813 310.676300,212.914078 327.558655,228.947235 
	C342.844788,243.464432 358.386841,257.732788 374.243530,271.622833 
	C390.214844,285.613312 406.827942,298.868927 422.918884,312.726318 
	C428.710663,317.714142 436.352844,321.004517 439.112152,329.044617 
	C432.631561,333.973663 426.150970,338.902710 419.348389,343.574707 
	C417.617767,340.660004 416.826385,337.286377 414.704041,335.456512 
	C395.485107,318.886749 375.742188,302.916565 356.728851,286.118713 
	C336.209900,267.990631 315.947296,249.537949 296.244263,230.530884 
	C277.582886,212.528687 260.020142,193.391174 241.489639,175.247879 
	C235.262741,169.151093 231.770950,162.837326 232.999420,154.166809 
z"/>
<path fill="#36C02E" opacity="1.000000" stroke="none" 
	d="
M321.962402,1218.121582 
	C315.045959,1213.972778 308.129517,1209.823975 301.313202,1205.129395 
	C302.456421,1202.694336 303.558075,1200.834595 304.533844,1198.911133 
	C317.626648,1173.102783 330.033112,1146.919189 343.931396,1121.552612 
	C367.287964,1078.923462 394.180206,1038.509888 423.860962,1000.000122 
	C425.902679,997.351257 429.414459,995.238770 432.661621,994.242249 
	C438.989868,992.300049 445.615265,991.325989 452.117615,989.951050 
	C454.311218,991.072205 456.504822,992.193420 458.705170,993.898499 
	C456.678223,996.680481 454.392181,998.695984 452.649750,1001.104675 
	C434.427307,1026.294312 415.814392,1051.219604 398.244507,1076.858887 
	C371.831451,1115.402954 350.435333,1156.842529 330.138763,1198.845093 
	C327.105621,1205.121948 324.672882,1211.688843 321.962402,1218.121582 
z"/>
<path fill="#0C9FBD" opacity="1.000000" stroke="none" 
	d="
M928.643921,942.032227 
	C954.080566,974.534241 979.588135,1006.893738 1004.217957,1039.908081 
	C1023.000732,1065.084961 1040.748169,1091.037598 1058.801758,1116.753540 
	C1067.304077,1128.864258 1075.443604,1141.229858 1083.896729,1153.795166 
	C1078.250366,1159.346069 1072.454712,1164.581787 1066.282593,1169.604614 
	C1063.022461,1164.546753 1060.411011,1159.513184 1057.210693,1154.886963 
	C1036.120239,1124.399902 1015.214783,1093.777222 993.621643,1063.648315 
	C978.240540,1042.187012 961.948914,1021.374939 945.929565,1000.375427 
	C935.056946,986.122620 923.952148,972.046753 912.951172,957.891785 
	C918.079834,952.651611 923.208496,947.411438 928.643921,942.032227 
z"/>
<path fill="#FFAD0F" opacity="1.000000" stroke="none" 
	d="
M99.883636,307.958954 
	C104.357330,300.735382 108.831017,293.511841 113.906509,286.297852 
	C115.391182,287.288513 116.315109,288.235962 117.150658,289.255798 
	C126.731758,300.950409 135.718811,313.196136 145.995346,324.242676 
	C165.499664,345.208344 186.329529,364.870819 209.080780,382.339630 
	C244.838394,409.794922 282.934113,433.452209 324.047363,452.109436 
	C320.593445,458.665985 317.139526,465.222534 313.288147,471.596649 
	C311.559357,470.259277 310.389618,468.798523 308.871796,467.996735 
	C293.580322,459.919250 277.761688,452.724121 263.010132,443.767517 
	C241.155487,430.498291 219.518097,416.737457 198.754105,401.839691 
	C173.094666,383.429535 149.950577,361.931976 128.389679,338.822357 
	C121.149887,331.062531 114.370667,322.874756 107.264580,314.987427 
	C104.997185,312.470764 102.354568,310.292206 99.883636,307.958954 
z"/>
<path fill="#BCC802" opacity="1.000000" stroke="none" 
	d="
M100.034821,1002.372437 
	C104.946281,995.481750 109.975250,988.894470 115.058701,982.349487 
	C133.442810,958.679565 155.188065,938.498779 179.114304,920.564026 
	C198.882523,905.746216 220.023483,893.118042 242.058792,882.094604 
	C266.941895,869.646423 292.766846,859.364563 319.743652,851.034729 
	C323.718384,856.410583 327.315582,861.856934 330.536926,867.679565 
	C311.174133,875.170898 291.739288,881.293152 273.295563,889.612671 
	C237.369812,905.817932 203.950409,926.186096 174.486511,952.784058 
	C154.096024,971.191101 136.163712,991.481384 121.916542,1015.000305 
	C119.786713,1018.516052 117.181519,1021.743835 114.796280,1025.104858 
	C109.923294,1017.634949 105.050301,1010.165100 100.034821,1002.372437 
z"/>
<path fill="#FFB50C" opacity="1.000000" stroke="none" 
	d="
M99.567184,308.100220 
	C102.354568,310.292206 104.997185,312.470764 107.264580,314.987427 
	C114.370667,322.874756 121.149887,331.062531 128.389679,338.822357 
	C149.950577,361.931976 173.094666,383.429535 198.754105,401.839691 
	C219.518097,416.737457 241.155487,430.498291 263.010132,443.767517 
	C277.761688,452.724121 293.580322,459.919250 308.871796,467.996735 
	C310.389618,468.798523 311.559357,470.259277 312.967041,471.761597 
	C310.259338,478.000183 307.475189,483.891357 304.368958,489.945862 
	C302.433868,488.586060 301.052246,486.646515 299.173035,485.602722 
	C273.609772,471.403534 247.379700,458.294800 222.544708,442.928192 
	C201.272217,429.765869 180.850861,414.951416 161.394714,399.209442 
	C142.720047,384.099762 125.632545,367.004120 108.137886,350.473938 
	C102.250854,344.911469 97.155014,338.490051 91.921753,332.272522 
	C90.620941,330.727051 90.192467,328.447327 89.128494,326.227539 
	C92.346222,320.047119 95.798477,314.144287 99.567184,308.100220 
z"/>
<path fill="#FF6031" opacity="1.000000" stroke="none" 
	d="
M439.428589,328.905762 
	C436.352844,321.004517 428.710663,317.714142 422.918884,312.726318 
	C406.827942,298.868927 390.214844,285.613312 374.243530,271.622833 
	C358.386841,257.732788 342.844788,243.464432 327.558655,228.947235 
	C310.676300,212.914078 294.158813,196.492813 277.647522,180.074524 
	C269.660614,172.132614 261.983582,163.874146 254.299423,155.634796 
	C250.347473,151.397278 249.912018,146.176208 250.968811,140.299622 
	C256.752167,135.310806 262.542908,130.740860 268.637085,126.416321 
	C267.048309,132.163498 266.892212,137.456131 271.167358,142.018768 
	C280.251556,151.713776 289.165649,161.582932 298.562134,170.967514 
	C318.817017,191.196686 339.198334,211.303986 359.800140,231.178955 
	C369.475220,240.512680 379.533905,249.488403 389.852936,258.106506 
	C409.221161,274.282166 429.001434,289.964478 448.369415,306.140442 
	C451.892487,309.082886 457.409851,311.391968 455.998291,317.833466 
	C450.580536,321.477966 445.162781,325.122437 439.428589,328.905762 
z"/>
<path fill="#50C21A" opacity="1.000000" stroke="none" 
	d="
M265.898468,1181.052002 
	C259.663544,1176.255981 253.428604,1171.459839 247.339874,1166.172607 
	C248.545181,1164.012573 249.746048,1162.416016 250.641602,1160.663574 
	C260.252167,1141.856934 269.651764,1122.940796 279.424835,1104.219482 
	C298.153961,1068.341553 319.797852,1034.223145 342.539551,1000.786377 
	C344.843170,997.399414 347.502930,994.254700 350.272034,990.779602 
	C351.694366,990.378784 352.842163,990.195862 354.185333,990.305115 
	C358.443024,994.079285 362.888062,994.749878 367.802124,992.547363 
	C371.289673,990.984131 374.741272,989.259094 378.366455,988.098328 
	C394.816315,982.831177 411.322052,977.738770 427.807709,972.583435 
	C431.115295,974.814270 434.422882,977.045105 437.693054,979.880371 
	C436.977661,980.937744 436.356781,981.632507 435.613312,981.807861 
	C421.059814,985.242065 406.506134,988.678101 391.921539,991.976990 
	C384.081787,993.750305 375.481262,993.581909 370.308807,1001.476746 
	C367.302887,1006.064697 363.948395,1010.426941 361.003021,1015.051453 
	C346.087982,1038.469604 330.485718,1061.495728 316.607239,1085.515869 
	C302.232941,1110.394409 289.559296,1136.255249 276.139221,1161.685059 
	C272.730896,1168.143433 269.312347,1174.596558 265.898468,1181.052002 
z"/>
<path fill="#45C122" opacity="1.000000" stroke="none" 
	d="
M266.053345,1181.359619 
	C269.312347,1174.596558 272.730896,1168.143433 276.139221,1161.685059 
	C289.559296,1136.255249 302.232941,1110.394409 316.607239,1085.515869 
	C330.485718,1061.495728 346.087982,1038.469604 361.003021,1015.051453 
	C363.948395,1010.426941 367.302887,1006.064697 370.308807,1001.476746 
	C375.481262,993.581909 384.081787,993.750305 391.921539,991.976990 
	C406.506134,988.678101 421.059814,985.242065 435.613312,981.807861 
	C436.356781,981.632507 436.977661,980.937744 437.865662,980.175781 
	C439.654877,981.026489 441.234100,982.186096 442.605591,983.802185 
	C433.304016,986.172058 424.278107,988.635681 415.088104,989.770630 
	C410.368286,990.353638 406.825256,991.626404 404.088684,995.327576 
	C399.542145,1001.476501 394.963348,1007.602539 390.487152,1013.802490 
	C359.259399,1057.055420 331.879791,1102.665771 307.534760,1150.096191 
	C299.938782,1164.895020 293.125549,1180.095581 285.953949,1195.112305 
	C279.372040,1190.630615 272.790131,1186.149048 266.053345,1181.359619 
z"/>
<path fill="#0BA3B3" opacity="1.000000" stroke="none" 
	d="
M912.604004,957.944458 
	C923.952148,972.046753 935.056946,986.122620 945.929565,1000.375427 
	C961.948914,1021.374939 978.240540,1042.187012 993.621643,1063.648315 
	C1015.214783,1093.777222 1036.120239,1124.399902 1057.210693,1154.886963 
	C1060.411011,1159.513184 1063.022461,1164.546753 1065.974854,1169.747559 
	C1061.250244,1174.006714 1056.457153,1177.910278 1051.184326,1181.664062 
	C1049.145752,1179.358643 1047.527222,1177.242920 1046.036865,1175.040527 
	C1029.898804,1151.191162 1014.424927,1126.860596 997.511353,1103.575317 
	C969.964233,1065.650513 941.475769,1028.409546 913.395203,990.872009 
	C908.241028,983.982117 903.137634,977.054138 898.010742,970.143677 
	C902.759460,966.094849 907.508179,962.046021 912.604004,957.944458 
z"/>
<path fill="#B1C701" opacity="1.000000" stroke="none" 
	d="
M114.980576,1025.398193 
	C117.181519,1021.743835 119.786713,1018.516052 121.916542,1015.000305 
	C136.163712,991.481384 154.096024,971.191101 174.486511,952.784058 
	C203.950409,926.186096 237.369812,905.817932 273.295563,889.612671 
	C291.739288,881.293152 311.174133,875.170898 330.544067,868.030457 
	C333.879272,872.434692 336.831543,876.864136 339.543579,881.645874 
	C328.624298,885.690552 317.850342,889.131714 307.284851,893.124573 
	C279.970337,903.447144 254.054230,916.664856 229.825272,932.910583 
	C207.152466,948.112793 185.588684,964.894043 168.376251,986.328857 
	C158.015961,999.230652 148.740479,1013.018799 139.269012,1026.611694 
	C135.412903,1032.145874 132.329315,1038.218384 128.894257,1044.045898 
	C124.317810,1037.927856 119.741348,1031.809692 114.980576,1025.398193 
z"/>
<path fill="#09AA9D" opacity="1.000000" stroke="none" 
	d="
M1022.047607,1203.107910 
	C1016.613708,1206.737793 1011.179749,1210.367798 1005.325317,1213.700439 
	C1004.245850,1212.067993 1003.721558,1210.644165 1002.907959,1209.411133 
	C988.331360,1187.321411 974.291687,1164.848877 958.984924,1143.275635 
	C934.448425,1108.694092 909.196777,1074.615845 883.979492,1040.523071 
	C874.006287,1027.039673 863.315674,1014.086853 852.951660,1000.892456 
	C858.071350,997.655579 863.190918,994.418762 868.788208,991.314758 
	C877.843811,1002.436401 886.668152,1013.242981 894.954773,1024.447144 
	C923.494812,1063.035522 952.152466,1101.543213 980.145630,1140.526733 
	C994.780640,1160.907715 1008.122009,1182.217529 1022.047607,1203.107910 
z"/>
<path fill="#FF6E2A" opacity="1.000000" stroke="none" 
	d="
M232.665878,154.192749 
	C231.770950,162.837326 235.262741,169.151093 241.489639,175.247879 
	C260.020142,193.391174 277.582886,212.528687 296.244263,230.530884 
	C315.947296,249.537949 336.209900,267.990631 356.728851,286.118713 
	C375.742188,302.916565 395.485107,318.886749 414.704041,335.456512 
	C416.826385,337.286377 417.617767,340.660004 419.038605,343.721619 
	C414.612885,347.752808 410.174988,351.379974 405.363098,354.687103 
	C403.215607,351.653107 401.947083,348.354675 399.589050,346.317139 
	C379.737244,329.163483 359.396820,312.566650 339.773193,295.159912 
	C318.643066,276.416809 297.796661,257.324554 277.446350,237.740540 
	C259.941589,220.894913 243.446564,203.004562 226.211227,185.871735 
	C220.735794,180.428879 217.407547,174.736679 218.957962,166.885117 
	C223.416092,162.662979 227.874207,158.440826 232.665878,154.192749 
z"/>
<path fill="#FF5B34" opacity="1.000000" stroke="none" 
	d="
M456.345337,317.799622 
	C457.409851,311.391968 451.892487,309.082886 448.369415,306.140442 
	C429.001434,289.964478 409.221161,274.282166 389.852936,258.106506 
	C379.533905,249.488403 369.475220,240.512680 359.800140,231.178955 
	C339.198334,211.303986 318.817017,191.196686 298.562134,170.967514 
	C289.165649,161.582932 280.251556,151.713776 271.167358,142.018768 
	C266.892212,137.456131 267.048309,132.163498 268.951324,126.271301 
	C273.723206,122.586227 278.484283,119.291565 283.601868,115.940880 
	C281.455475,124.442802 284.883087,130.551651 290.920898,136.675400 
	C305.488892,151.450745 319.130066,167.138275 333.653351,181.959808 
	C344.804749,193.340210 356.640778,204.058838 368.340576,214.890015 
	C378.569397,224.359406 388.846008,233.793808 399.437653,242.850525 
	C414.187653,255.462982 429.162292,267.818024 444.214569,280.069702 
	C452.828247,287.080750 461.871307,293.563385 470.515045,300.539154 
	C472.166565,301.871979 472.854950,304.398193 474.013214,306.746307 
	C468.256622,310.667755 462.474487,314.216736 456.345337,317.799622 
z"/>
<path fill="#24BF40" opacity="1.000000" stroke="none" 
	d="
M515.668884,1021.994690 
	C510.912689,1028.680664 505.937134,1035.282715 500.723572,1041.691284 
	C474.345642,1074.115112 450.407532,1108.245728 429.384979,1144.368530 
	C419.103668,1162.034912 408.995911,1179.834717 399.675293,1198.017822 
	C391.568176,1213.833496 384.678558,1230.273071 377.099945,1246.770020 
	C371.844025,1244.784912 366.739105,1242.466553 361.342102,1239.606689 
	C361.480591,1237.815796 361.790771,1236.508545 362.359680,1235.326050 
	C371.653992,1216.006836 380.225830,1196.291016 390.485229,1177.496948 
	C404.410309,1151.987915 418.834198,1126.674072 434.536285,1102.235229 
	C448.616211,1080.320923 464.526428,1059.564453 480.017914,1038.584229 
	C485.999847,1030.482910 493.052368,1023.172058 499.617126,1015.501099 
	C504.858002,1017.607849 510.098907,1019.714661 515.668884,1021.994690 
z"/>
<path fill="#2EBF35" opacity="1.000000" stroke="none" 
	d="
M322.142700,1218.412354 
	C324.672882,1211.688843 327.105621,1205.121948 330.138763,1198.845093 
	C350.435333,1156.842529 371.831451,1115.402954 398.244507,1076.858887 
	C415.814392,1051.219604 434.427307,1026.294312 452.649750,1001.104675 
	C454.392181,998.695984 456.678223,996.680481 458.881958,994.187622 
	C464.286987,996.712708 469.522003,999.532532 474.608521,1002.750610 
	C473.115082,1004.794434 471.708832,1006.394043 470.434509,1008.092651 
	C455.882751,1027.488770 440.783600,1046.504761 426.929504,1066.387939 
	C395.776245,1111.098633 369.026794,1158.402222 346.116028,1207.854980 
	C343.186401,1214.178589 340.670624,1220.693970 337.963135,1227.120483 
	C332.749756,1224.314697 327.536407,1221.508911 322.142700,1218.412354 
z"/>
<path fill="#3EC028" opacity="1.000000" stroke="none" 
	d="
M286.104767,1195.418945 
	C293.125549,1180.095581 299.938782,1164.895020 307.534760,1150.096191 
	C331.879791,1102.665771 359.259399,1057.055420 390.487152,1013.802490 
	C394.963348,1007.602539 399.542145,1001.476501 404.088684,995.327576 
	C406.825256,991.626404 410.368286,990.353638 415.088104,989.770630 
	C424.278107,988.635681 433.304016,986.172058 442.754150,984.100281 
	C446.007629,985.739807 448.904877,987.537781 451.959869,989.643372 
	C445.615265,991.325989 438.989868,992.300049 432.661621,994.242249 
	C429.414459,995.238770 425.902679,997.351257 423.860962,1000.000122 
	C394.180206,1038.509888 367.287964,1078.923462 343.931396,1121.552612 
	C330.033112,1146.919189 317.626648,1173.102783 304.533844,1198.911133 
	C303.558075,1200.834595 302.456421,1202.694336 301.156677,1204.818237 
	C296.018524,1201.943726 291.137054,1198.834595 286.104767,1195.418945 
z"/>
<path fill="#08AE90" opacity="1.000000" stroke="none" 
	d="
M976.466675,1231.014893 
	C972.371216,1225.617065 968.581909,1220.220093 964.907654,1214.745728 
	C945.648438,1186.051147 926.774902,1157.089111 907.057373,1128.713379 
	C893.040955,1108.542114 878.137573,1088.970459 863.190918,1069.467773 
	C849.974365,1052.222290 836.156799,1035.437256 822.570862,1018.475952 
	C822.085815,1017.870483 821.240662,1017.553467 820.220459,1017.028381 
	C825.650818,1014.296570 831.423950,1011.638489 837.745178,1009.232544 
	C853.724182,1029.022827 869.385315,1048.384766 884.516968,1068.151978 
	C897.843262,1085.560913 910.982971,1103.141846 923.478271,1121.151123 
	C941.953796,1147.779297 959.761108,1174.870972 977.908875,1201.727295 
	C982.534729,1208.573120 987.371277,1215.276611 992.110962,1222.045410 
	C987.015991,1225.023682 981.921021,1228.001831 976.466675,1231.014893 
z"/>
<path fill="#FFA711" opacity="1.000000" stroke="none" 
	d="
M324.363495,451.951813 
	C282.934113,433.452209 244.838394,409.794922 209.080780,382.339630 
	C186.329529,364.870819 165.499664,345.208344 145.995346,324.242676 
	C135.718811,313.196136 126.731758,300.950409 117.150658,289.255798 
	C116.315109,288.235962 115.391182,287.288513 114.213181,286.135468 
	C117.367706,281.049835 120.817352,276.136139 124.834045,271.308411 
	C127.492004,273.760071 129.630280,276.085785 131.666031,278.498077 
	C143.542496,292.571167 154.905716,307.115570 167.375290,320.640564 
	C184.171494,338.858398 202.630447,355.379517 222.161987,370.695465 
	C247.613754,390.653931 274.494232,408.379395 303.064514,423.543304 
	C312.758759,428.688629 322.431213,433.875092 332.113647,439.042786 
	C329.635651,443.293243 327.157623,447.543701 324.363495,451.951813 
z"/>
<path fill="#08AC95" opacity="1.000000" stroke="none" 
	d="
M992.426392,1221.897217 
	C987.371277,1215.276611 982.534729,1208.573120 977.908875,1201.727295 
	C959.761108,1174.870972 941.953796,1147.779297 923.478271,1121.151123 
	C910.982971,1103.141846 897.843262,1085.560913 884.516968,1068.151978 
	C869.385315,1048.384766 853.724182,1029.022827 838.123047,1009.188110 
	C842.710083,1006.260864 847.467407,1003.630249 852.588135,1000.946045 
	C863.315674,1014.086853 874.006287,1027.039673 883.979492,1040.523071 
	C909.196777,1074.615845 934.448425,1108.694092 958.984924,1143.275635 
	C974.291687,1164.848877 988.331360,1187.321411 1002.907959,1209.411133 
	C1003.721558,1210.644165 1004.245850,1212.067993 1004.970459,1213.761597 
	C1000.938110,1216.663086 996.839966,1219.206055 992.426392,1221.897217 
z"/>
<path fill="#FFA212" opacity="1.000000" stroke="none" 
	d="
M332.429810,438.905212 
	C322.431213,433.875092 312.758759,428.688629 303.064514,423.543304 
	C274.494232,408.379395 247.613754,390.653931 222.161987,370.695465 
	C202.630447,355.379517 184.171494,338.858398 167.375290,320.640564 
	C154.905716,307.115570 143.542496,292.571167 131.666031,278.498077 
	C129.630280,276.085785 127.492004,273.760071 125.147644,271.172241 
	C126.886993,268.176849 128.879807,265.403534 131.344971,262.390320 
	C133.344086,263.407013 135.025421,264.517517 136.372528,265.943787 
	C145.390610,275.491638 154.176849,285.263458 163.345795,294.662628 
	C176.556961,308.205566 189.835022,321.695496 203.461044,334.817047 
	C212.067642,343.104980 220.837051,351.396423 230.454559,358.426025 
	C250.449783,373.040924 270.605682,387.537018 291.561798,400.703156 
	C307.286102,410.582367 324.363129,418.308533 340.837921,426.993225 
	C338.140594,430.918030 335.443268,434.842834 332.429810,438.905212 
z"/>
<path fill="#FF9C14" opacity="1.000000" stroke="none" 
	d="
M340.988037,426.677917 
	C324.363129,418.308533 307.286102,410.582367 291.561798,400.703156 
	C270.605682,387.537018 250.449783,373.040924 230.454559,358.426025 
	C220.837051,351.396423 212.067642,343.104980 203.461044,334.817047 
	C189.835022,321.695496 176.556961,308.205566 163.345795,294.662628 
	C154.176849,285.263458 145.390610,275.491638 136.372528,265.943787 
	C135.025421,264.517517 133.344086,263.407013 131.491959,262.076721 
	C134.201782,258.074921 137.237015,254.146774 140.879028,250.256531 
	C143.238098,252.278275 144.967361,254.283035 146.747025,256.242004 
	C151.772125,261.773407 156.815872,267.287933 161.856018,272.805664 
	C169.992310,281.713013 177.865860,290.881653 186.361420,299.432190 
	C192.189590,305.298065 198.964615,310.212280 205.174713,315.711914 
	C217.726913,326.828033 229.833832,338.475006 242.746826,349.150146 
	C275.204590,375.982666 310.954071,397.712341 348.840576,415.990692 
	C346.273102,419.447998 343.705627,422.905304 340.988037,426.677917 
z"/>
<path fill="#A1C600" opacity="1.000000" stroke="none" 
	d="
M149.893311,1071.049805 
	C145.652603,1065.921753 141.411942,1060.793579 137.378815,1055.275635 
	C138.690186,1053.527832 140.098984,1052.317627 140.841553,1050.784668 
	C143.234283,1045.845093 145.107895,1040.641968 147.667587,1035.797241 
	C164.754593,1003.455688 188.974609,977.053589 217.392731,954.559631 
	C249.378860,929.241455 285.210327,910.653748 323.599670,896.944397 
	C330.790039,894.376587 337.899536,891.582397 345.046387,888.892700 
	C347.360382,891.992615 349.674377,895.092529 351.817078,898.848328 
	C350.804993,899.994324 350.013245,900.612793 349.116150,900.955444 
	C332.343140,907.362366 315.133209,912.813538 298.857605,920.297729 
	C257.158325,939.472778 220.018860,965.127380 190.029999,1000.405884 
	C176.673050,1016.118774 165.764252,1033.286011 157.742691,1052.282715 
	C155.104950,1058.529541 152.508575,1064.793579 149.893311,1071.049805 
z"/>
<path fill="#27BF3D" opacity="1.000000" stroke="none" 
	d="
M499.337341,1015.292480 
	C493.052368,1023.172058 485.999847,1030.482910 480.017914,1038.584229 
	C464.526428,1059.564453 448.616211,1080.320923 434.536285,1102.235229 
	C418.834198,1126.674072 404.410309,1151.987915 390.485229,1177.496948 
	C380.225830,1196.291016 371.653992,1216.006836 362.359680,1235.326050 
	C361.790771,1236.508545 361.480591,1237.815796 361.028961,1239.428345 
	C357.112640,1237.761230 353.217377,1235.730713 349.167847,1233.020996 
	C355.411926,1218.087646 361.262268,1203.554810 368.340912,1189.647095 
	C378.223969,1170.229248 388.610901,1151.039429 399.517822,1132.177246 
	C422.790955,1091.929321 449.248932,1053.837646 478.595337,1017.755310 
	C480.931641,1014.882812 482.435028,1011.332825 484.325439,1008.097656 
	C489.236145,1010.426392 494.146851,1012.755127 499.337341,1015.292480 
z"/>
<path fill="#FF7327" opacity="1.000000" stroke="none" 
	d="
M218.642776,167.027344 
	C217.407547,174.736679 220.735794,180.428879 226.211227,185.871735 
	C243.446564,203.004562 259.941589,220.894913 277.446350,237.740540 
	C297.796661,257.324554 318.643066,276.416809 339.773193,295.159912 
	C359.396820,312.566650 379.737244,329.163483 399.589050,346.317139 
	C401.947083,348.354675 403.215607,351.653107 405.014130,354.742798 
	C401.581665,358.356812 398.124237,361.595093 394.340820,364.581604 
	C392.225586,361.288483 391.066528,357.527130 388.546173,355.321167 
	C370.450897,339.483215 351.765015,324.311127 333.873962,308.251099 
	C311.024048,287.739716 288.507751,266.840942 266.295898,245.639557 
	C249.089371,229.215820 232.671066,211.969147 215.687775,195.307022 
	C210.388260,190.107712 206.864883,184.571320 207.957458,176.886017 
	C211.414169,173.647202 214.870880,170.408401 218.642776,167.027344 
z"/>
<path fill="#0AA5AB" opacity="1.000000" stroke="none" 
	d="
M897.673828,970.170898 
	C903.137634,977.054138 908.241028,983.982117 913.395203,990.872009 
	C941.475769,1028.409546 969.964233,1065.650513 997.511353,1103.575317 
	C1014.424927,1126.860596 1029.898804,1151.191162 1046.036865,1175.040527 
	C1047.527222,1177.242920 1049.145752,1179.358643 1050.875366,1181.812256 
	C1047.613770,1184.740234 1044.181519,1187.370605 1040.227051,1189.757202 
	C1028.826904,1173.381226 1018.116699,1157.132568 1007.031006,1141.144165 
	C990.926819,1117.918091 975.043274,1094.514160 958.173401,1071.850098 
	C934.868164,1040.540405 910.732544,1009.848755 886.952637,978.892456 
	C890.414062,975.994324 893.875427,973.096191 897.673828,970.170898 
z"/>
<path fill="#FF9716" opacity="1.000000" stroke="none" 
	d="
M348.987854,415.678711 
	C310.954071,397.712341 275.204590,375.982666 242.746826,349.150146 
	C229.833832,338.475006 217.726913,326.828033 205.174713,315.711914 
	C198.964615,310.212280 192.189590,305.298065 186.361420,299.432190 
	C177.865860,290.881653 169.992310,281.713013 161.856018,272.805664 
	C156.815872,267.287933 151.772125,261.773407 146.747025,256.242004 
	C144.967361,254.283035 143.238098,252.278275 141.189148,250.122482 
	C143.352783,246.706406 145.813095,243.462296 148.881409,240.257553 
	C151.521500,242.892639 153.369431,245.661011 155.615112,248.056503 
	C172.190720,265.737885 188.521194,283.667450 205.601730,300.849945 
	C215.283813,310.589813 225.869324,319.536346 236.700943,328.005005 
	C254.233322,341.712646 271.660187,355.729767 290.323792,367.767853 
	C309.708099,380.270844 330.523315,390.551910 350.665527,401.888611 
	C352.629211,402.993866 354.261017,404.688812 356.046875,406.110046 
	C353.742950,409.195618 351.439056,412.281189 348.987854,415.678711 
z"/>
<path fill="#99C601" opacity="1.000000" stroke="none" 
	d="
M150.036667,1071.360840 
	C152.508575,1064.793579 155.104950,1058.529541 157.742691,1052.282715 
	C165.764252,1033.286011 176.673050,1016.118774 190.029999,1000.405884 
	C220.018860,965.127380 257.158325,939.472778 298.857605,920.297729 
	C315.133209,912.813538 332.343140,907.362366 349.116150,900.955444 
	C350.013245,900.612793 350.804993,899.994324 351.848969,899.199585 
	C354.648590,901.700195 357.245026,904.505493 359.664001,907.775391 
	C357.327759,909.106750 355.213531,910.112854 353.003510,910.818909 
	C325.644623,919.558472 299.453644,930.922729 274.760590,945.636963 
	C248.470383,961.303040 224.340500,979.728516 204.502975,1003.171631 
	C185.834167,1025.233765 171.466675,1049.797974 163.884842,1077.995972 
	C163.373138,1079.899048 161.257492,1081.370972 159.887848,1083.043335 
	C156.651901,1079.252930 153.415955,1075.462402 150.036667,1071.360840 
z"/>
<path fill="#FF7B23" opacity="1.000000" stroke="none" 
	d="
M189.958344,193.886383 
	C193.086502,190.643326 196.214661,187.400284 199.660522,184.464294 
	C198.916779,192.800446 203.598007,198.741974 208.453751,203.677780 
	C228.171158,223.720352 248.157700,243.515259 268.529205,262.892456 
	C289.225128,282.578186 310.338593,301.833893 331.562805,320.951935 
	C344.752014,332.832275 358.658875,343.914429 371.894775,355.745087 
	C377.412598,360.677063 382.023468,366.623749 387.046753,372.109009 
	C384.917938,374.352722 382.789124,376.596436 380.201477,378.655151 
	C378.788086,377.369232 377.999695,376.038055 376.849579,375.208221 
	C372.425018,372.015991 367.576782,369.344879 363.448944,365.820740 
	C353.619171,357.428680 344.128601,348.640228 334.466278,340.050964 
	C316.970428,324.498016 299.319061,309.117157 281.982971,293.388458 
	C269.675385,282.222076 257.482697,270.897034 245.769226,259.115387 
	C228.535446,241.781250 211.851913,223.901215 194.749405,206.434448 
	C191.170456,202.779266 189.662811,198.792389 189.958344,193.886383 
z"/>
<path fill="#78C409" opacity="1.000000" stroke="none" 
	d="
M198.955627,1124.113159 
	C196.047607,1121.314941 193.139587,1118.516602 190.104248,1114.987793 
	C190.935989,1110.603027 191.299103,1106.649780 192.957672,1103.347046 
	C199.974075,1089.375122 207.475723,1075.647827 214.606979,1061.732300 
	C220.973419,1049.309082 229.451523,1039.023193 241.779846,1031.974854 
	C245.737946,1029.712036 249.076172,1026.239868 252.395844,1023.010315 
	C260.363861,1015.258728 267.779938,1006.902100 276.086823,999.543884 
	C297.330322,980.726318 321.659332,966.709167 347.826935,956.025024 
	C361.665039,950.375000 375.998199,945.937439 390.107819,940.952454 
	C393.341553,943.747681 396.575287,946.542969 399.581970,949.722961 
	C390.166229,953.041504 380.877808,955.698120 371.807770,958.961670 
	C345.844421,968.303589 321.226318,980.299866 299.229858,997.182190 
	C286.208374,1007.176147 274.305969,1018.740906 258.947205,1025.400513 
	C252.438705,1028.222534 247.718094,1032.935669 244.384216,1039.183594 
	C229.269867,1067.508667 214.103363,1095.805908 198.955627,1124.113159 
z"/>
<path fill="#0AA8A4" opacity="1.000000" stroke="none" 
	d="
M1022.362671,1202.958252 
	C1008.122009,1182.217529 994.780640,1160.907715 980.145630,1140.526733 
	C952.152466,1101.543213 923.494812,1063.035522 894.954773,1024.447144 
	C886.668152,1013.242981 877.843811,1002.436401 869.095520,991.145325 
	C871.877136,988.831543 874.829102,986.820068 878.375122,984.866089 
	C879.719910,985.578003 880.597778,986.132385 881.202759,986.901489 
	C896.106018,1005.845154 911.232910,1024.619751 925.810364,1043.811523 
	C963.276367,1093.137329 998.782654,1143.844604 1032.047974,1196.107910 
	C1028.924561,1198.341431 1025.801147,1200.574951 1022.362671,1202.958252 
z"/>
<path fill="#FF8121" opacity="1.000000" stroke="none" 
	d="
M189.649826,194.023773 
	C189.662811,198.792389 191.170456,202.779266 194.749405,206.434448 
	C211.851913,223.901215 228.535446,241.781250 245.769226,259.115387 
	C257.482697,270.897034 269.675385,282.222076 281.982971,293.388458 
	C299.319061,309.117157 316.970428,324.498016 334.466278,340.050964 
	C344.128601,348.640228 353.619171,357.428680 363.448944,365.820740 
	C367.576782,369.344879 372.425018,372.015991 376.849579,375.208221 
	C377.999695,376.038055 378.788086,377.369232 379.895020,378.789246 
	C378.910889,380.358612 377.774384,381.608856 376.167114,382.681885 
	C373.030548,380.919037 370.440125,379.185364 367.682159,377.780701 
	C362.953308,375.372192 358.026001,373.344635 353.348816,370.844971 
	C342.264374,364.921112 333.248993,356.402191 324.086273,347.917328 
	C306.686584,331.804810 288.604492,316.431763 271.064056,300.467804 
	C258.293793,288.845276 245.791382,276.917542 233.436493,264.852478 
	C219.154373,250.905441 204.871902,236.934036 191.208252,222.391922 
	C186.449463,217.327179 179.929581,212.480148 180.957520,203.886047 
	C183.752121,200.644409 186.546722,197.402786 189.649826,194.023773 
z"/>
<path fill="#2ABF3A" opacity="1.000000" stroke="none" 
	d="
M484.150208,1007.833618 
	C482.435028,1011.332825 480.931641,1014.882812 478.595337,1017.755310 
	C449.248932,1053.837646 422.790955,1091.929321 399.517822,1132.177246 
	C388.610901,1151.039429 378.223969,1170.229248 368.340912,1189.647095 
	C361.262268,1203.554810 355.411926,1218.087646 348.985657,1232.728516 
	C345.400391,1231.316528 341.843048,1229.517700 338.124390,1227.419678 
	C340.670624,1220.693970 343.186401,1214.178589 346.116028,1207.854980 
	C369.026794,1158.402222 395.776245,1111.098633 426.929504,1066.387939 
	C440.783600,1046.504761 455.882751,1027.488770 470.434509,1008.092651 
	C471.708832,1006.394043 473.115082,1004.794434 474.793915,1003.053833 
	C478.076843,1004.495728 481.025879,1006.032654 484.150208,1007.833618 
z"/>
<path fill="#71C30C" opacity="1.000000" stroke="none" 
	d="
M199.093170,1124.413574 
	C214.103363,1095.805908 229.269867,1067.508667 244.384216,1039.183594 
	C247.718094,1032.935669 252.438705,1028.222534 258.947205,1025.400513 
	C274.305969,1018.740906 286.208374,1007.176147 299.229858,997.182190 
	C321.226318,980.299866 345.844421,968.303589 371.807770,958.961670 
	C380.877808,955.698120 390.166229,953.041504 399.736267,950.035645 
	C403.015137,952.422974 405.912659,954.882324 408.616333,957.801147 
	C406.069275,959.068054 403.759247,960.045044 401.356293,960.657471 
	C368.346710,969.070801 338.183502,983.608154 310.264404,1002.961121 
	C309.280212,1003.643311 308.742279,1004.969238 307.667267,1006.144653 
	C305.227997,1006.865784 303.117828,1007.437317 300.648895,1008.071167 
	C297.074890,1009.476990 293.927887,1011.024292 290.632294,1012.127747 
	C278.080811,1016.330383 269.040253,1024.023193 262.737061,1036.009888 
	C251.849945,1056.713867 239.641342,1076.718628 228.481430,1097.284912 
	C221.833344,1109.536377 216.128021,1122.299438 209.998886,1134.832520 
	C209.998886,1134.832520 209.503464,1134.872925 209.503464,1134.872925 
	C209.503464,1134.872925 209.125412,1134.550171 208.907852,1134.104492 
	C208.424255,1133.453979 208.158234,1133.249146 207.892181,1133.044312 
	C205.005005,1130.267456 202.117844,1127.490723 199.093170,1124.413574 
z"/>
<path fill="#80C406" opacity="1.000000" stroke="none" 
	d="
M389.962891,940.648804 
	C375.998199,945.937439 361.665039,950.375000 347.826935,956.025024 
	C321.659332,966.709167 297.330322,980.726318 276.086823,999.543884 
	C267.779938,1006.902100 260.363861,1015.258728 252.395844,1023.010315 
	C249.076172,1026.239868 245.737946,1029.712036 241.779846,1031.974854 
	C229.451523,1039.023193 220.973419,1049.309082 214.606979,1061.732300 
	C207.475723,1075.647827 199.974075,1089.375122 192.957672,1103.347046 
	C191.299103,1106.649780 190.935989,1110.603027 189.967560,1114.686768 
	C188.361099,1113.627686 186.764023,1112.138916 185.339096,1110.141846 
	C185.984390,1108.785767 186.722260,1107.987549 186.891785,1107.082886 
	C190.760483,1086.437866 199.161621,1068.143555 212.114624,1051.331421 
	C228.832977,1029.632324 243.915665,1006.773743 265.809540,989.488831 
	C283.399750,975.601624 301.854218,963.067932 322.128967,953.771057 
	C339.624207,945.748657 358.042450,939.740417 376.042114,932.814392 
	C377.420135,932.284119 378.714722,931.536987 380.048126,930.890625 
	C383.304749,934.042175 386.561371,937.193665 389.962891,940.648804 
z"/>
<path fill="#93C501" opacity="1.000000" stroke="none" 
	d="
M160.029388,1083.351074 
	C161.257492,1081.370972 163.373138,1079.899048 163.884842,1077.995972 
	C171.466675,1049.797974 185.834167,1025.233765 204.502975,1003.171631 
	C224.340500,979.728516 248.470383,961.303040 274.760590,945.636963 
	C299.453644,930.922729 325.644623,919.558472 353.003510,910.818909 
	C355.213531,910.112854 357.327759,909.106750 359.817627,908.075684 
	C362.100616,910.360718 364.052521,912.810120 365.725708,915.763672 
	C351.425110,921.524963 336.966339,925.862061 323.486786,932.261597 
	C304.736938,941.163208 286.105164,950.630554 268.556427,961.659485 
	C249.410965,973.692017 232.324203,988.582642 217.430588,1005.894958 
	C207.608383,1017.312195 199.042755,1029.462891 191.686829,1042.562012 
	C182.106750,1059.621826 176.805923,1078.111938 172.963684,1097.120972 
	C168.699448,1092.633545 164.435196,1088.146240 160.029388,1083.351074 
z"/>
<path fill="#FF7725" opacity="1.000000" stroke="none" 
	d="
M387.353058,371.974487 
	C382.023468,366.623749 377.412598,360.677063 371.894775,355.745087 
	C358.658875,343.914429 344.752014,332.832275 331.562805,320.951935 
	C310.338593,301.833893 289.225128,282.578186 268.529205,262.892456 
	C248.157700,243.515259 228.171158,223.720352 208.453751,203.677780 
	C203.598007,198.741974 198.916779,192.800446 199.969193,184.327179 
	C202.419128,181.643829 204.878082,179.404678 207.647247,177.025757 
	C206.864883,184.571320 210.388260,190.107712 215.687775,195.307022 
	C232.671066,211.969147 249.089371,229.215820 266.295898,245.639557 
	C288.507751,266.840942 311.024048,287.739716 333.873962,308.251099 
	C351.765015,324.311127 370.450897,339.483215 388.546173,355.321167 
	C391.066528,357.527130 392.225586,361.288483 394.027161,364.723785 
	C391.912750,367.358521 389.786072,369.599243 387.353058,371.974487 
z"/>
<path fill="#FF9219" opacity="1.000000" stroke="none" 
	d="
M356.364563,405.967224 
	C354.261017,404.688812 352.629211,402.993866 350.665527,401.888611 
	C330.523315,390.551910 309.708099,380.270844 290.323792,367.767853 
	C271.660187,355.729767 254.233322,341.712646 236.700943,328.005005 
	C225.869324,319.536346 215.283813,310.589813 205.601730,300.849945 
	C188.521194,283.667450 172.190720,265.737885 155.615112,248.056503 
	C153.369431,245.661011 151.521500,242.892639 149.191284,240.123352 
	C151.370880,236.690155 153.848633,233.430527 156.790817,230.349579 
	C160.065094,234.413773 162.491394,238.662628 165.760422,242.113052 
	C173.868622,250.671143 182.426620,258.800964 190.682831,267.221558 
	C199.737228,276.456207 208.633408,285.845764 217.638809,295.128754 
	C232.931839,310.893127 248.442062,326.417480 266.586273,339.005798 
	C277.240387,346.397491 287.417145,354.609070 298.608643,361.065002 
	C317.889832,372.187500 337.829956,382.164246 357.384735,392.821533 
	C359.323120,393.877930 360.507996,396.316986 362.042603,398.114319 
	C360.255829,400.684326 358.469055,403.254333 356.364563,405.967224 
z"/>
<path fill="#A9C701" opacity="1.000000" stroke="none" 
	d="
M344.907654,888.586670 
	C337.899536,891.582397 330.790039,894.376587 323.599670,896.944397 
	C285.210327,910.653748 249.378860,929.241455 217.392731,954.559631 
	C188.974609,977.053589 164.754593,1003.455688 147.667587,1035.797241 
	C145.107895,1040.641968 143.234283,1045.845093 140.841553,1050.784668 
	C140.098984,1052.317627 138.690186,1053.527832 137.234406,1054.963013 
	C134.253342,1051.610596 131.624237,1048.181030 128.944687,1044.398682 
	C132.329315,1038.218384 135.412903,1032.145874 139.269012,1026.611694 
	C148.740479,1013.018799 158.015961,999.230652 168.376251,986.328857 
	C185.588684,964.894043 207.152466,948.112793 229.825272,932.910583 
	C254.054230,916.664856 279.970337,903.447144 307.284851,893.124573 
	C317.850342,889.131714 328.624298,885.690552 339.693756,881.954956 
	C341.645752,884.034790 343.207306,886.157715 344.907654,888.586670 
z"/>
<path fill="#88C503" opacity="1.000000" stroke="none" 
	d="
M379.908997,930.590271 
	C378.714722,931.536987 377.420135,932.284119 376.042114,932.814392 
	C358.042450,939.740417 339.624207,945.748657 322.128967,953.771057 
	C301.854218,963.067932 283.399750,975.601624 265.809540,989.488831 
	C243.915665,1006.773743 228.832977,1029.632324 212.114624,1051.331421 
	C199.161621,1068.143555 190.760483,1086.437866 186.891785,1107.082886 
	C186.722260,1107.987549 185.984390,1108.785767 185.200195,1109.843750 
	C184.310776,1109.581177 183.732407,1109.108643 183.212540,1108.000488 
	C183.516602,1106.233276 183.847046,1105.112671 183.995209,1103.968384 
	C187.028076,1080.542236 194.526749,1058.667969 206.722839,1038.421387 
	C219.733124,1016.823181 236.387009,998.445007 255.920258,982.583130 
	C277.124390,965.364502 300.319305,951.371094 325.449860,940.813599 
	C341.075317,934.249329 357.198547,928.869873 373.098358,922.958557 
	C375.322205,925.402344 377.546051,927.846130 379.908997,930.590271 
z"/>
<path fill="#8DC502" opacity="1.000000" stroke="none" 
	d="
M372.961395,922.653748 
	C357.198547,928.869873 341.075317,934.249329 325.449860,940.813599 
	C300.319305,951.371094 277.124390,965.364502 255.920258,982.583130 
	C236.387009,998.445007 219.733124,1016.823181 206.722839,1038.421387 
	C194.526749,1058.667969 187.028076,1080.542236 183.995209,1103.968384 
	C183.847046,1105.112671 183.516602,1106.233276 183.110199,1107.735229 
	C179.713440,1104.647705 176.477539,1101.189941 173.102661,1097.426514 
	C176.805923,1078.111938 182.106750,1059.621826 191.686829,1042.562012 
	C199.042755,1029.462891 207.608383,1017.312195 217.430588,1005.894958 
	C232.324203,988.582642 249.410965,973.692017 268.556427,961.659485 
	C286.105164,950.630554 304.736938,941.163208 323.486786,932.261597 
	C336.966339,925.862061 351.425110,921.524963 365.778351,916.110718 
	C368.347931,918.085327 370.586182,920.217163 372.961395,922.653748 
z"/>
<path fill="#FF891D" opacity="1.000000" stroke="none" 
	d="
M164.957962,220.885544 
	C167.752304,217.643738 170.546646,214.401932 173.659668,211.471466 
	C174.585403,214.946045 174.295181,218.743240 175.988098,221.139221 
	C179.410995,225.983627 183.700516,230.284943 187.999252,234.430023 
	C216.015686,261.445038 244.074677,288.416595 272.240417,315.275818 
	C283.515686,326.028046 294.751129,336.866669 306.618988,346.942474 
	C324.863251,362.431915 344.820770,375.227814 367.905487,382.557068 
	C369.803528,383.159698 371.341034,384.897919 373.046082,386.108521 
	C371.582123,388.020264 370.118103,389.932007 368.331421,391.589935 
	C366.570465,389.806030 365.415131,387.654297 363.646759,386.849335 
	C353.974640,382.446625 343.797119,379.034454 334.471771,374.020142 
	C323.085541,367.897583 312.013397,361.031128 301.458923,353.562836 
	C288.896912,344.673981 276.577057,335.322662 264.984955,325.216583 
	C253.000259,314.768250 241.979721,303.209656 230.599442,292.073364 
	C212.174423,274.043365 193.633377,256.126251 175.519638,237.787811 
	C170.894119,233.104889 165.194733,228.549957 164.957962,220.885544 
z"/>
<path fill="#FF851F" opacity="1.000000" stroke="none" 
	d="
M373.333618,385.991058 
	C371.341034,384.897919 369.803528,383.159698 367.905487,382.557068 
	C344.820770,375.227814 324.863251,362.431915 306.618988,346.942474 
	C294.751129,336.866669 283.515686,326.028046 272.240417,315.275818 
	C244.074677,288.416595 216.015686,261.445038 187.999252,234.430023 
	C183.700516,230.284943 179.410995,225.983627 175.988098,221.139221 
	C174.295181,218.743240 174.585403,214.946045 173.969879,211.332764 
	C176.089233,208.640793 178.217072,206.398895 180.651230,204.021515 
	C179.929581,212.480148 186.449463,217.327179 191.208252,222.391922 
	C204.871902,236.934036 219.154373,250.905441 233.436493,264.852478 
	C245.791382,276.917542 258.293793,288.845276 271.064056,300.467804 
	C288.604492,316.431763 306.686584,331.804810 324.086273,347.917328 
	C333.248993,356.402191 342.264374,364.921112 353.348816,370.844971 
	C358.026001,373.344635 362.953308,375.372192 367.682159,377.780701 
	C370.440125,379.185364 373.030548,380.919037 375.871674,382.806549 
	C375.238373,384.030121 374.429749,384.951874 373.333618,385.991058 
z"/>
<path fill="#FF8D1B" opacity="1.000000" stroke="none" 
	d="
M164.647217,221.024307 
	C165.194733,228.549957 170.894119,233.104889 175.519638,237.787811 
	C193.633377,256.126251 212.174423,274.043365 230.599442,292.073364 
	C241.979721,303.209656 253.000259,314.768250 264.984955,325.216583 
	C276.577057,335.322662 288.896912,344.673981 301.458923,353.562836 
	C312.013397,361.031128 323.085541,367.897583 334.471771,374.020142 
	C343.797119,379.034454 353.974640,382.446625 363.646759,386.849335 
	C365.415131,387.654297 366.570465,389.806030 368.022888,391.725403 
	C366.270081,394.078400 364.503174,396.042114 362.389435,398.060059 
	C360.507996,396.316986 359.323120,393.877930 357.384735,392.821533 
	C337.829956,382.164246 317.889832,372.187500 298.608643,361.065002 
	C287.417145,354.609070 277.240387,346.397491 266.586273,339.005798 
	C248.442062,326.417480 232.931839,310.893127 217.638809,295.128754 
	C208.633408,285.845764 199.737228,276.456207 190.682831,267.221558 
	C182.426620,258.800964 173.868622,250.671143 165.760422,242.113052 
	C162.491394,238.662628 160.065094,234.413773 157.104279,230.209259 
	C159.414352,226.981171 161.875412,224.072128 164.647217,221.024307 
z"/>
<path fill="#0AA7A7" opacity="1.000000" stroke="none" 
	d="
M1032.360107,1195.961670 
	C998.782654,1143.844604 963.276367,1093.137329 925.810364,1043.811523 
	C911.232910,1024.619751 896.106018,1005.845154 881.202759,986.901489 
	C880.597778,986.132385 879.719910,985.578003 878.649170,984.668579 
	C880.970154,982.608765 883.611084,980.803894 886.602295,978.945740 
	C910.732544,1009.848755 934.868164,1040.540405 958.173401,1071.850098 
	C975.043274,1094.514160 990.926819,1117.918091 1007.031006,1141.144165 
	C1018.116699,1157.132568 1028.826904,1173.381226 1039.875732,1189.811279 
	C1037.588257,1192.011108 1035.130249,1193.913330 1032.360107,1195.961670 
z"/>
<path fill="#6AC30F" opacity="1.000000" stroke="none" 
	d="
M307.996338,1005.995117 
	C308.742279,1004.969238 309.280212,1003.643311 310.264404,1002.961121 
	C338.183502,983.608154 368.346710,969.070801 401.356293,960.657471 
	C403.759247,960.045044 406.069275,959.068054 408.765442,958.107178 
	C410.651550,959.078552 412.194763,960.203308 413.644470,961.879517 
	C411.547119,963.166565 409.587250,964.068726 407.532501,964.611816 
	C387.078583,970.017883 367.286530,977.212463 348.454346,986.866760 
	C343.402649,989.456421 338.803345,992.928589 333.672028,996.143066 
	C330.233002,997.528687 327.118286,998.766785 323.640808,1000.069946 
	C318.184143,1002.088379 313.090240,1004.041748 307.996338,1005.995117 
z"/>
<path fill="#59C215" opacity="1.000000" stroke="none" 
	d="
M427.609619,972.288391 
	C411.322052,977.738770 394.816315,982.831177 378.366455,988.098328 
	C374.741272,989.259094 371.289673,990.984131 367.802124,992.547363 
	C362.888062,994.749878 358.443024,994.079285 354.550110,990.235901 
	C356.285400,989.338074 357.860321,988.826538 359.415680,988.261108 
	C376.350098,982.105408 393.292053,975.970093 410.203766,969.752441 
	C413.220123,968.643433 416.107452,967.183472 419.054382,965.885498 
	C421.840088,967.921448 424.625793,969.957397 427.609619,972.288391 
z"/>
<path fill="#61C312" opacity="1.000000" stroke="none" 
	d="
M418.911591,965.591431 
	C416.107452,967.183472 413.220123,968.643433 410.203766,969.752441 
	C393.292053,975.970093 376.350098,982.105408 359.415680,988.261108 
	C357.860321,988.826538 356.285400,989.338074 354.354736,989.943726 
	C352.842163,990.195862 351.694366,990.378784 349.887939,990.800842 
	C344.151642,992.691895 339.074005,994.343750 333.996338,995.995605 
	C338.803345,992.928589 343.402649,989.456421 348.454346,986.866760 
	C367.286530,977.212463 387.078583,970.017883 407.532501,964.611816 
	C409.587250,964.068726 411.547119,963.166565 413.804230,962.163818 
	C415.627930,963.030151 417.198364,964.163757 418.911591,965.591431 
z"/>
<path fill="#59C215" opacity="1.000000" stroke="none" 
	d="
M333.672028,996.143066 
	C339.074005,994.343750 344.151642,992.691895 349.613373,991.018799 
	C347.502930,994.254700 344.843170,997.399414 342.539551,1000.786377 
	C319.797852,1034.223145 298.153961,1068.341553 279.424835,1104.219482 
	C269.651764,1122.940796 260.252167,1141.856934 250.641602,1160.663574 
	C249.746048,1162.416016 248.545181,1164.012573 247.191254,1165.866821 
	C243.132767,1163.083252 239.369080,1160.114380 235.323792,1156.625244 
	C235.766785,1154.258179 236.337112,1152.332153 237.239594,1150.576904 
	C247.661270,1130.306274 257.537689,1109.725098 268.741516,1089.894409 
	C282.963470,1064.721558 298.200836,1040.119507 313.171661,1015.374939 
	C316.408234,1010.025269 320.373779,1005.116638 324.003540,1000.004883 
	C327.118286,998.766785 330.233002,997.528687 333.672028,996.143066 
z"/>
<path fill="#61C312" opacity="1.000000" stroke="none" 
	d="
M323.640808,1000.069946 
	C320.373779,1005.116638 316.408234,1010.025269 313.171661,1015.374939 
	C298.200836,1040.119507 282.963470,1064.721558 268.741516,1089.894409 
	C257.537689,1109.725098 247.661270,1130.306274 237.239594,1150.576904 
	C236.337112,1152.332153 235.766785,1154.258179 235.019470,1156.468994 
	C230.726578,1153.108887 226.456406,1149.384766 222.297867,1145.121826 
	C235.953934,1119.026611 249.134476,1093.268433 263.167023,1067.982910 
	C272.997528,1050.269043 283.931061,1033.163574 294.524841,1015.880127 
	C296.283997,1013.010132 298.826904,1010.620483 301.007629,1008.008850 
	C303.117828,1007.437317 305.227997,1006.865784 307.667236,1006.144653 
	C313.090240,1004.041748 318.184143,1002.088379 323.640808,1000.069946 
z"/>
<path fill="#6AC30F" opacity="1.000000" stroke="none" 
	d="
M300.648865,1008.071167 
	C298.826904,1010.620483 296.283997,1013.010132 294.524841,1015.880127 
	C283.931061,1033.163574 272.997528,1050.269043 263.167023,1067.982910 
	C249.134476,1093.268433 235.953934,1119.026611 222.152039,1144.816650 
	C218.131989,1141.747559 214.369415,1138.444946 210.302856,1134.987427 
	C216.128021,1122.299438 221.833344,1109.536377 228.481430,1097.284912 
	C239.641342,1076.718628 251.849945,1056.713867 262.737061,1036.009888 
	C269.040253,1024.023193 278.080811,1016.330383 290.632294,1012.127747 
	C293.927887,1011.024292 297.074890,1009.476990 300.648865,1008.071167 
z"/>
<path fill="#6AC30F" opacity="1.000000" stroke="none" 
	d="
M208.017120,1133.270020 
	C208.158234,1133.249146 208.424255,1133.453979 208.835083,1133.866821 
	C208.700592,1133.881836 208.421310,1133.688843 208.017120,1133.270020 
z"/>
</svg>
